<svg width="21" height="21" viewBox="0 0 21 21" fill="none" xmlns="http://www.w3.org/2000/svg">
<path d="M16.3327 15.5077L20.8291 20.0042C21.057 20.232 21.057 20.6013 20.8291 20.8291C20.6013 21.057 20.232 21.057 20.0042 20.8291L15.5077 16.3327C13.8623 17.7852 11.7007 18.6667 9.33333 18.6667C4.17868 18.6667 0 14.488 0 9.33333C0 4.17868 4.17868 0 9.33333 0C14.488 0 18.6667 4.17868 18.6667 9.33333C18.6667 11.7007 17.7852 13.8623 16.3327 15.5077ZM9.33333 17.5C13.8437 17.5 17.5 13.8437 17.5 9.33333C17.5 4.82301 13.8437 1.16667 9.33333 1.16667C4.82301 1.16667 1.16667 4.82301 1.16667 9.33333C1.16667 13.8437 4.82301 17.5 9.33333 17.5Z" fill="#41F200"/>
</svg>