<svg width="23" height="23" viewBox="0 0 23 23" fill="none" xmlns="http://www.w3.org/2000/svg">
<path d="M3.55798 3.14336C3.55798 1.40733 4.96509 0 6.70085 0C8.4366 0 9.84371 1.40733 9.84371 3.14336C9.84371 4.15671 9.36427 5.05807 8.61988 5.6329C8.59749 5.64942 8.57524 5.66614 8.55314 5.68304C8.03372 6.06264 7.39344 6.28672 6.70085 6.28672C4.96509 6.28672 3.55798 4.87939 3.55798 3.14336Z" fill="#41F200"/>
<path d="M14.2104 5.6329C14.2328 5.64942 14.255 5.66614 14.2771 5.68305C14.7965 6.06266 15.4369 6.28672 16.1294 6.28672C17.8652 6.28672 19.2723 4.87939 19.2723 3.14336C19.2723 1.40733 17.8652 0 16.1294 0C14.3936 0 12.9865 1.40733 12.9865 3.14336C12.9865 4.15671 13.466 5.05807 14.2104 5.6329Z" fill="#41F200"/>
<path d="M8.69257 7.85856C9.23599 6.91901 10.2517 6.28688 11.415 6.28688C12.5783 6.28688 13.594 6.91901 14.1374 7.85856C14.4048 8.3209 14.5578 8.85769 14.5578 9.43024C14.5578 11.1663 13.1507 12.5736 11.415 12.5736C9.67922 12.5736 8.27212 11.1663 8.27212 9.43024C8.27212 8.85769 8.42516 8.3209 8.69257 7.85856Z" fill="#41F200"/>
<path d="M2.77216 7.85832H6.96903C6.79529 8.34991 6.70077 8.8789 6.70077 9.43C6.70077 10.6376 7.15467 11.7392 7.90117 12.5734H7.48645C5.78123 12.5734 4.32979 13.66 3.7865 15.1786C3.25227 14.9612 2.75801 14.6772 2.31985 14.3255C1.13628 13.3753 0.415039 11.97 0.415039 10.2158C0.415039 8.91387 1.47035 7.85832 2.77216 7.85832Z" fill="#41F200"/>
<path d="M15.3436 12.5734C17.0488 12.5734 18.5003 13.66 19.0435 15.1786C19.5778 14.9612 20.072 14.6772 20.5103 14.3255C21.6938 13.3753 22.415 11.97 22.415 10.2158C22.415 8.91381 21.3597 7.85832 20.0579 7.85832H15.8611C16.0347 8.34991 16.1293 8.8789 16.1293 9.43C16.1293 10.6376 15.6753 11.7392 14.9289 12.5734H15.3436Z" fill="#41F200"/>
<path d="M17.5235 15.6037C17.6377 15.8808 17.7009 16.1844 17.7009 16.5027C17.7009 18.2569 16.9796 19.6623 15.7962 20.6123C14.6313 21.5475 13.07 22.0036 11.4152 22.0036C9.76034 22.0036 8.19912 21.5475 7.03427 20.6123C5.8507 19.6623 5.12946 18.2569 5.12946 16.5027C5.12946 16.1844 5.19255 15.8808 5.3069 15.6037C5.66025 14.7476 6.50306 14.1452 7.48657 14.1452H15.3438C16.3273 14.1452 17.1701 14.7476 17.5235 15.6037Z" fill="#41F200"/>
</svg>