<svg width="23" height="23" viewBox="0 0 23 23" fill="none" xmlns="http://www.w3.org/2000/svg">
<path d="M17.5276 21.9979C17.3513 21.9986 17.1774 21.9549 17.0205 21.8705L11.3985 18.7799L5.77649 21.8705C5.59393 21.9713 5.3881 22.0163 5.1824 22.0004C4.9767 21.9845 4.77938 21.9083 4.61287 21.7805C4.44636 21.6527 4.31735 21.4784 4.24048 21.2774C4.16362 21.0764 4.142 20.8568 4.17807 20.6436L5.28043 14.1266L0.738724 9.49652C0.597024 9.34804 0.496505 9.16184 0.447953 8.95791C0.399401 8.75398 0.404649 8.54002 0.463135 8.33899C0.527027 8.13326 0.644556 7.95047 0.802385 7.81134C0.960213 7.67221 1.15202 7.58232 1.35604 7.55187L7.63947 6.59111L10.4064 0.652975C10.4966 0.45727 10.6376 0.292222 10.8131 0.176736C10.9885 0.061251 11.1914 0 11.3985 0C11.6056 0 11.8085 0.061251 11.984 0.176736C12.1594 0.292222 12.3004 0.45727 12.3906 0.652975L15.1906 6.57954L21.474 7.54029C21.6781 7.57074 21.8699 7.66063 22.0277 7.79976C22.1855 7.93889 22.3031 8.12169 22.3669 8.32741C22.4254 8.52845 22.4307 8.74241 22.3821 8.94634C22.3336 9.15027 22.2331 9.33646 22.0914 9.48494L17.5496 14.1151L18.652 20.632C18.6914 20.849 18.6708 21.0733 18.5926 21.2784C18.5145 21.4835 18.3821 21.6609 18.2111 21.7895C18.0114 21.9364 17.7711 22.0097 17.5276 21.9979ZM11.3985 16.326C11.5752 16.3213 11.75 16.3652 11.9056 16.4533L16.0615 18.7684L15.2678 13.8951C15.237 13.7091 15.25 13.5179 15.3057 13.3383C15.3615 13.1588 15.4582 12.9962 15.5875 12.8649L18.8945 9.47337L14.2646 8.7557C14.0948 8.71981 13.9355 8.64241 13.7995 8.52979C13.6635 8.41717 13.5548 8.27249 13.482 8.10748L11.3985 3.76674L9.31505 8.10748C9.23529 8.27382 9.11849 8.4175 8.97456 8.52632C8.83063 8.63514 8.66381 8.70588 8.48828 8.73255L3.85839 9.45022L7.16546 12.8418C7.29474 12.9731 7.39146 13.1356 7.44718 13.3152C7.5029 13.4948 7.51594 13.6859 7.48514 13.872L6.69144 18.6873L10.8473 16.3723C11.0234 16.3035 11.2142 16.2875 11.3985 16.326Z" fill="#41F200"/>
</svg>