<svg width="26" height="27" viewBox="0 0 26 27" fill="none" xmlns="http://www.w3.org/2000/svg">
<path fill-rule="evenodd" clip-rule="evenodd" d="M20.4764 3.99945C20.9504 3.53629 21.6882 3.5088 22.1935 3.91122L22.3147 4.02077L22.4408 4.15008C24.7112 6.54764 26 9.71793 26 13.0872C26 20.2669 20.1797 26.0872 13 26.0872C5.8203 26.0872 0 20.2669 0 13.0872C0 9.86442 1.1792 6.82369 3.28097 4.4543L3.57327 4.13541L3.68528 4.02077C4.18704 3.50724 5.0101 3.49769 5.52364 3.99945C5.99767 4.46261 6.04227 5.19954 5.65168 5.71409L5.54496 5.8378L5.44706 5.93778C3.62957 7.85712 2.6 10.3897 2.6 13.0872C2.6 18.8309 7.25624 23.4872 13 23.4872C18.7438 23.4872 23.4 18.8309 23.4 13.0872C23.4 10.5316 22.476 8.12416 20.8453 6.25833L20.567 5.95244L20.455 5.8378C19.9533 5.32427 19.9628 4.50121 20.4764 3.99945ZM13 0.0871582C13.718 0.0871582 14.3 0.669188 14.3 1.38716V11.7872C14.3 12.5051 13.718 13.0872 13 13.0872C12.282 13.0872 11.7 12.5051 11.7 11.7872V1.38716C11.7 0.669188 12.282 0.0871582 13 0.0871582Z" fill="#41F200"/>
</svg>