<svg width="80" height="80" viewBox="0 0 100 100" fill="none" xmlns="http://www.w3.org/2000/svg">
<path d="M63.1152 50.0601C63.4184 50.3668 63.5876 50.7799 63.5862 51.2098C63.5847 51.6397 63.4128 52.0517 63.1076 52.3564C61.8192 53.6477 60.6093 54.8658 59.297 56.1684C58.4751 56.9849 57.9398 56.9849 57.1221 56.1723C51.4978 50.5852 45.8754 44.9963 40.2549 39.4055C36.6851 35.8561 33.1152 32.3069 29.5453 28.7579C29.4081 28.6216 29.2542 28.5017 29.1082 28.3741C28.2546 27.5074 27.4011 26.6404 26.5479 25.7732C25.7804 24.9904 25.7727 24.4261 26.5498 23.6535C34.2871 15.9634 42.0266 8.27577 49.7683 0.590577C50.5619 -0.197841 51.0976 -0.191929 51.8923 0.578749C52.8355 1.49294 53.7768 2.40919 54.7162 3.32751C55.0495 3.67976 55.3757 4.03906 55.7178 4.38286C56.6154 5.28391 56.6267 5.82539 55.7365 6.71067C52.4772 9.95087 49.2166 13.1896 45.9547 16.4268C43.4189 18.9462 40.8842 21.4665 38.3507 23.9877C37.715 24.621 37.7104 24.8009 38.3325 25.4167C39.7842 26.8537 41.2399 28.285 42.6997 29.7105C44.8253 31.8443 46.9464 33.9848 49.0811 36.1108C53.748 40.7605 58.4208 45.4052 63.0996 50.0446L63.1152 50.0601Z" fill="#5C1DBB"/>
<path d="M50.872 54.0768C49.763 52.1857 48.2518 50.6492 46.5853 49.2506C44.7369 47.6996 42.6138 46.2712 40.05 46.1324C39.2304 46.0977 38.4476 46.3576 37.6059 46.6474C36.4487 47.0444 35.3898 47.6478 34.3523 48.2879C34.1686 48.4005 33.9504 48.5396 33.7424 48.3827C33.4912 48.1938 33.6313 47.9432 33.7154 47.7202C33.7925 47.5163 33.9192 47.3313 33.9875 47.1255C34.3276 46.1042 34.8352 45.3268 35.0444 44.0098C35.4108 41.8093 34.721 40.0252 33.4796 38.3293C31.4175 35.5116 28.9949 33.0998 25.6809 31.7364C23.7089 31.1237 21.7831 31.2721 19.8856 32.0577C17.6353 32.9897 15.7512 34.4556 14.043 36.1313C9.50639 40.5802 5.01228 45.0745 0.507399 49.5566C-0.201139 50.2606 -0.161744 50.8829 0.588739 51.6291C3.60957 54.6339 6.63049 57.6386 9.6515 60.6432C12.1665 63.1522 14.6763 65.6666 17.1807 68.1864C17.7583 68.7414 18.3453 69.2871 18.9121 69.8525C21.9078 72.84 24.9007 75.8302 27.891 78.823C29.0003 79.9093 30.1097 80.9968 31.2194 82.0856C32.1674 83.0148 32.6648 83.0185 33.6117 82.0741C38.4944 77.2028 43.3753 72.3299 48.2543 67.4554C49.2095 66.2317 50.179 65.0231 50.953 63.6665C52.791 60.4441 52.7385 57.2603 50.872 54.0768ZM26.2928 49.1872C25.82 50.0435 25.2192 50.8063 24.5294 51.4981C23.2754 52.7558 22.0162 54.0086 20.752 55.2563C20.0554 55.9434 19.433 55.9476 18.7279 55.2541C17.2541 53.8043 15.7873 52.3468 14.3273 50.8815C13.5859 50.1378 13.5921 49.5724 14.3412 48.8161C14.785 48.3678 18.3753 44.5992 20.0829 43.5599C21.7185 42.5648 22.9675 42.6448 24.4585 43.8415C24.9001 44.1957 25.4221 44.6423 25.8473 45.0787C26.3191 45.5573 26.6412 46.1614 26.7749 46.818C26.9381 47.6444 26.755 48.3504 26.2928 49.1872ZM40.9329 60.9802C40.7727 61.631 40.3422 62.1612 39.9497 62.6739C39.7702 62.9071 39.5773 63.1298 39.3721 63.341C37.622 65.158 35.8342 66.9393 34.0405 68.7138C33.4932 69.255 32.8879 69.2598 32.3207 68.7577C32.2924 68.7329 32.2641 68.7067 32.2357 68.6791C32.0696 68.5164 31.9037 68.3533 31.738 68.1898C30.3133 66.7869 28.9002 65.372 27.4828 63.9616C27.2915 63.7712 27.0294 63.4618 27.0419 63.1659C27.0274 62.6714 27.1728 62.4292 27.4953 62.1082C29.1717 60.4452 30.8436 58.7777 32.535 57.1297C33.2348 56.4477 34.0088 55.8423 34.9197 55.4599C35.6928 55.1353 36.8146 55.0094 37.7255 55.5388C39.117 56.3477 40.23 57.4225 40.8447 58.9323L40.862 58.9754C41.1242 59.6287 41.1367 60.2329 40.9329 60.9802Z" fill="#41F200"/>
<path d="M89.553 41.3264C88.8139 42.0634 88.0743 42.8002 87.3342 43.5368C86.3479 44.5167 85.8247 44.4305 84.8804 43.4371C84.0585 42.5738 80.3993 38.9826 79.3968 38.543C78.5361 38.1657 77.4336 38.1936 76.5865 38.6024C74.969 39.383 73.9884 40.2871 73.1053 41.8099C72.6541 42.5879 72.5246 43.7198 73.0047 44.4894C73.5239 45.322 74.2438 46.1873 74.9492 46.8603C75.2406 47.1382 77.3562 49.475 78.3519 50.3673C79.2897 51.2078 79.3098 51.7411 78.4321 52.6098C77.6363 53.3982 76.8419 54.1866 76.0347 54.9624C75.3134 55.6556 74.9356 55.7021 74.0941 55.1792C72.4081 54.1314 70.9536 52.7965 69.4918 51.4722C69.3124 51.3097 69.1233 51.1566 68.9408 50.9989C67.8142 49.7951 66.6834 48.601 65.7864 47.2021C64.006 44.4263 64.0227 41.6606 65.6951 38.8547C66.1954 38.0153 66.7948 37.2517 67.4016 36.4934C68.1756 35.5212 69.0251 34.6108 69.9424 33.7705C70.2683 33.4735 70.5999 33.1882 70.9406 32.9126C71.9278 32.1135 73.0066 31.433 74.1545 30.8852C74.7695 30.5924 75.4032 30.3412 76.0817 30.1883C78.9853 29.5345 81.3762 30.6439 83.6121 32.3072C84.8447 33.2246 85.8751 34.3571 86.9592 35.4327C87.9248 36.646 88.9525 37.8118 89.7985 39.116C90.4478 40.1142 90.4098 40.4721 89.553 41.3264Z" fill="#41F200"/>
<path d="M70.9111 77.5753C70.3817 75.8599 68.6971 75.109 67.1023 75.8737L67.0969 75.876C67.0777 75.8829 67.0567 75.8838 67.037 75.8783C67.0173 75.8729 66.9998 75.8614 66.987 75.8456C66.9741 75.8298 66.9666 75.8103 66.9654 75.79C66.9642 75.7697 66.9695 75.7496 66.9804 75.7324C67.0068 75.691 67.032 75.653 67.0462 75.6302C67.7831 74.4475 67.091 73.5085 65.965 72.6356C65.0399 71.9187 64.2421 71.9835 63.2708 72.8234C62.8304 73.2041 62.4206 73.62 61.9954 74.0201C61.6072 74.4183 61.2342 74.833 60.8261 75.2101C60.497 75.5139 60.5214 75.7495 60.8286 76.0525C62.8811 78.0786 64.9264 80.1118 66.9646 82.1521C67.2712 82.4595 67.503 82.4826 67.8091 82.1636C68.1597 81.7976 68.546 81.4667 68.9167 81.1204C69.4127 80.5885 69.9226 80.0684 70.4007 79.521C70.8896 78.9635 71.1429 78.3274 70.9111 77.5753ZM65.4792 76.0548C65.2828 76.2671 64.6034 77.0454 64.4124 76.8894C64.0076 76.5567 63.6336 76.1886 63.2949 75.7895C63.1311 75.5975 63.911 74.9217 64.1281 74.7291C64.5686 74.3386 64.9991 74.369 65.4219 74.7804C65.8448 75.1917 65.883 75.6181 65.4789 76.0545L65.4792 76.0548ZM67.3398 79.7657C67.1669 79.7556 66.0415 78.5766 66.0658 78.431C66.0942 78.2652 66.4958 77.8439 66.8773 77.4762C66.9655 77.391 67.0699 77.3241 67.1845 77.2795C67.299 77.2348 67.4214 77.2133 67.5444 77.2162C67.6674 77.219 67.7886 77.2462 67.9009 77.2961C68.0132 77.346 68.1144 77.4177 68.1985 77.5069C68.6659 77.9357 68.6903 78.4212 68.2586 78.9539C67.9412 79.345 67.4679 79.773 67.3398 79.7654V79.7657Z" fill="#3DE400"/>
<path d="M93.1643 56.5437C92.106 56.1886 91.0194 55.8251 89.9334 55.4585C89.4252 55.287 88.925 55.0888 88.4092 54.9446C88.1541 54.8737 87.814 54.6025 87.6227 54.9593C87.4421 55.2972 87.8364 55.4571 88.0274 55.6449C88.9295 56.5324 89.826 57.4287 90.7726 58.2681C91.2753 58.7138 91.1441 59.0039 90.7278 59.3784C90.3429 59.7247 90.0759 60.1521 89.4944 59.556C87.5912 57.6047 85.5914 55.7508 83.6696 53.8175C83.4429 53.5897 82.9631 53.2715 83.3032 52.8959C83.8963 52.1638 84.2835 51.923 84.8316 52.1049C86.2898 52.5884 87.7392 53.0969 89.1996 53.5731C89.5269 53.6798 89.9674 54.0129 90.2071 53.6635C90.4787 53.267 89.9399 53.0645 89.7069 52.8325C88.8283 51.9562 87.9427 51.0831 87.0145 50.2589C86.4723 49.7777 86.6826 49.4668 87.0995 49.0842C87.5 48.7159 87.7684 48.2822 88.3805 48.9169C90.2896 50.8961 92.2494 52.828 94.2229 54.7456C94.6996 55.2088 94.6916 55.534 94.1979 55.9149C93.8856 56.1554 93.7102 56.6113 93.1643 56.5437Z" fill="#3DE400"/>
<path d="M96.0684 53.1453C95.4359 53.093 94.8534 52.9328 94.3354 52.5842C92.8245 51.5671 91.5097 50.3552 90.573 48.78C89.8784 47.6123 89.9546 46.4725 90.7658 45.3848C91.2923 44.6786 91.9382 44.094 92.6326 43.5512C93.1005 43.1851 93.3145 43.0483 93.8672 43.6463C93.9981 43.7871 94.1418 43.922 94.2727 44.065C94.5936 44.4156 94.6165 44.6195 94.303 44.8898C94.2534 44.9321 94.2011 44.9711 94.1463 45.0066C93.5582 45.3972 93.0336 45.8745 92.6442 46.4762C92.1128 47.2984 92.1341 47.9336 92.7703 48.6652C93.4239 49.4156 94.0837 50.1682 94.928 50.7229C95.8525 51.3303 97.5666 50.6221 97.689 49.5268C97.7548 48.9355 97.1301 48.666 96.7435 48.3332C96.4669 48.095 96.2498 48.4072 96.1008 48.6148C95.7451 49.112 95.4129 49.0622 95.0561 48.6252C94.9496 48.4921 94.8279 48.3719 94.6933 48.267C94.2336 47.9176 94.2413 47.6 94.6794 47.2173C95.1363 46.818 95.5523 46.3726 95.9726 45.9325C96.2277 45.6652 96.4482 45.6579 96.7124 45.9237C97.7412 46.9579 98.7757 47.9866 99.816 49.0098C100.017 49.2069 100.028 49.426 99.9688 49.6774C99.6621 50.9893 97.6748 52.8671 96.3411 53.0989C96.2473 53.1161 96.1512 53.1315 96.0684 53.1453Z" fill="#3DE400"/>
<path d="M70.8284 67.5098C70.9015 67.6109 70.9361 67.7345 70.9259 67.8586C70.9158 67.9827 70.8616 68.0991 70.7731 68.1872C70.7346 68.2258 70.6946 68.2627 70.6566 68.2999C70.1065 68.8498 69.5666 69.4107 68.9975 69.9409C68.6225 70.2788 68.5627 70.4145 68.9785 70.829C69.1384 70.9698 69.3044 71.1311 69.4685 71.2756C69.8047 71.5709 69.9875 71.6036 70.2989 71.2891C70.7606 70.8231 71.2416 70.3742 71.6899 69.8961C71.9909 69.5751 72.2148 69.5864 72.5402 69.886C73.6053 70.8662 73.6155 70.8538 72.5799 71.8666C72.3531 72.0876 72.1944 72.2707 71.907 72.5334C71.4366 72.9639 71.4366 73.3103 71.8858 73.7391C72.6793 74.4619 72.651 74.494 73.4216 73.7284C73.8873 73.2655 74.3591 72.8088 74.8103 72.3337C75.1042 72.024 75.3488 71.9958 75.6663 72.3174C76.8917 73.5564 76.7582 73.2272 75.7229 74.2817C74.9226 75.0983 74.0902 75.8819 73.3014 76.708C72.9265 77.1006 72.6533 77.1763 72.2296 76.7466C70.2661 74.7568 68.2848 72.7845 66.2858 70.8296C65.8672 70.4207 65.8813 70.1602 66.2949 69.7689C67.2658 68.85 68.2136 67.9071 69.1381 66.9401C69.5479 66.5124 69.7996 66.504 70.2533 66.9418C70.4253 67.1074 70.6654 67.2862 70.8284 67.5098Z" fill="#3DE400"/>
<path d="M85.2003 64.7703C84.9365 65.1959 84.5796 65.5571 84.1562 65.827C83.8244 66.0413 83.635 65.6696 83.4426 65.4807C82.0031 64.0638 80.5588 62.6506 79.1506 61.203C78.705 60.7449 78.4063 60.6466 77.92 61.1664C77.0476 62.099 77.0476 62.099 75.7793 60.8592C75.5282 60.6058 75.7201 60.4162 75.9069 60.2304C77.0972 59.0478 78.2918 57.8652 79.4737 56.6724C79.7596 56.3838 80.0034 56.361 80.2658 56.6772C80.2817 56.6955 80.2988 56.7127 80.3171 56.7287C81.3876 57.7117 81.4043 57.7286 80.3738 58.7279C79.9648 59.1249 79.9563 59.3905 80.3678 59.7895C81.8529 61.2294 83.3111 62.697 84.7738 64.1598C84.9413 64.3271 85.1652 64.4631 85.2003 64.7703Z" fill="#3DE400"/>
<path d="M80.0705 69.9279C79.7982 70.3027 79.5581 70.5418 79.1256 70.8524C78.8603 71.0002 78.5761 70.664 78.3777 70.47C76.9195 69.0427 75.4662 67.6094 74.0414 66.1492C73.6311 65.7285 73.3573 65.6803 72.9285 66.1295C71.932 67.1727 71.7052 66.9345 70.7462 65.8774C70.5075 65.6221 70.6688 65.4376 70.8567 65.2512C72.047 64.0708 73.2039 62.8578 74.4204 61.7033C74.8288 61.3162 74.8288 61.3162 75.2224 61.6895C75.3106 61.774 75.3987 61.8568 75.4854 61.943C76.332 62.7728 76.332 62.7728 75.484 63.6192C74.816 64.286 74.818 64.284 75.5016 64.9623C76.9158 66.3653 78.3284 67.7703 79.7392 69.1773C79.8619 69.2997 80.011 69.4079 80.0989 69.5763C80.1272 69.6318 80.1396 69.694 80.1346 69.7561C80.1296 69.8181 80.1074 69.8776 80.0705 69.9279Z" fill="#3DE400"/>
<path d="M88.7453 61.2466C88.4857 61.6783 88.1251 62.0413 87.6941 62.3048C87.369 62.5019 87.1803 62.1268 86.9856 61.9351C85.0136 59.9849 83.0639 58.0116 81.0721 56.0816C80.571 55.5959 80.81 55.3495 81.1758 54.9801C81.5159 54.6383 81.8164 54.0965 82.4557 54.7549C84.4054 56.76 86.4111 58.7113 88.395 60.6835C88.5489 60.8355 88.7266 60.9735 88.7453 61.2466Z" fill="#3DE400"/>
<path d="M50.7223 79.8403C50.2788 80.268 50.609 81.0162 51.2262 80.9832C52.0966 80.9362 52.9375 80.6735 53.7937 80.5372C55.7915 80.2204 57.7788 79.8389 59.7684 79.4743C60.4755 79.3447 61.0678 79.5331 61.57 80.0338C62.6889 81.1497 63.8087 82.265 64.9294 83.3795C65.2955 83.7424 65.5429 84.149 65.3857 84.6781C65.2215 85.2291 64.7961 85.4786 64.2486 85.5679C61.6508 85.9912 59.0528 86.4169 56.4547 86.8451C56.2149 86.8845 55.7195 86.9611 55.7195 86.9611C55.7195 86.9611 54.4852 87.1599 53.8662 87.2858C53.2918 87.4029 53.0398 87.8304 52.9369 88.3749C52.5005 90.6839 52.0604 92.9928 51.6168 95.3017C51.3841 96.5153 51.171 97.7334 50.9017 98.9392C50.6543 100.046 49.6244 100.347 48.8019 99.5538C47.6286 98.4228 46.4779 97.2686 45.3343 96.1068C44.8261 95.5901 44.6612 94.9867 44.8386 94.2408C45.5333 91.3171 46.1843 88.3839 46.846 85.4522C46.8689 85.3438 46.8846 85.234 46.8928 85.1236C46.9212 84.8189 46.7018 84.5382 46.3957 84.5041C46.1562 84.4782 45.9207 84.6049 45.6741 84.853C44.1355 86.4016 42.5809 87.9348 41.0312 89.4725C40.1243 90.3736 39.7323 90.3938 38.7288 89.5995C37.7551 88.6157 36.7813 87.6321 35.8073 86.6489C34.823 85.6605 34.8154 85.1979 35.7988 84.225C41.0136 79.0594 46.2285 73.8943 51.4433 68.7298C51.6148 68.5609 51.7707 68.3745 51.9339 68.1962C54.5527 65.6204 57.1713 63.0441 59.7899 60.4675C61.7132 58.5711 63.6256 56.6637 65.55 54.7684C66.4028 53.9284 66.9286 53.934 67.7856 54.7762C68.8097 55.7826 69.8287 56.794 70.8428 57.8105C71.6395 58.6105 71.6321 59.1779 70.8196 59.9821C67.0484 63.7141 63.2764 67.445 59.5034 71.1748C59.297 71.3792 59.1108 71.6036 58.9153 71.8187C56.8463 73.8401 54.7774 75.8617 52.7085 77.8836C52.0478 78.5299 51.4028 79.1924 50.7319 79.8285L50.7223 79.8403Z" fill="#5C1DBB"/>
<path d="M71.8138 23.3015C71.7476 22.3044 71.4556 21.335 70.9596 20.4657C69.371 17.7299 66.4249 14.4814 62.9316 12.3825C60.8533 11.1334 58.3156 10.858 56.0364 11.6921C55.2187 11.9914 54.4209 12.4154 53.6404 12.9459C51.1404 14.6458 49.0244 16.7385 47.3352 19.2381C45.906 21.3527 45.088 23.6335 45.6333 26.2316C45.7597 26.5977 45.8654 26.9707 46.0159 27.3258C47.5265 30.8883 50.1473 33.5149 53.2688 35.6887C55.2161 37.0453 57.1434 37.5296 59.1922 37.3618C60.5652 37.2465 61.8972 36.8396 63.0982 36.1685C63.2272 36.0967 63.3465 36.0254 63.4502 35.9559C66.0503 34.2121 68.1974 32.0098 69.9659 29.4486C71.2373 27.6063 71.9691 25.5958 71.8138 23.3015ZM63.4851 26.804C62.6348 27.9833 61.5318 28.9629 60.268 29.7378C59.4654 30.23 58.7866 30.308 57.9004 30.3195C55.5197 30.3195 53.2433 28.5217 52.5319 26.4673C51.7769 24.2865 52.719 22.6443 54.0136 21.0821C54.6638 20.2976 55.4324 19.6221 56.2551 19.0024C58.0228 17.6711 60.8584 17.9411 62.723 19.5323C63.1858 19.9265 64.2268 20.8985 64.547 22.0383C65.0674 23.8894 64.4971 25.4024 63.4851 26.804Z" fill="#5C1DBB"/>
</svg>