<svg width="22" height="22" viewBox="0 0 16 12" fill="none" xmlns="http://www.w3.org/2000/svg">
<path fill-rule="evenodd" clip-rule="evenodd" d="M0.816833 6C0.82364 6.01237 0.830797 6.02531 0.838304 6.0388C0.920024 6.18562 1.04302 6.39727 1.20588 6.65213C1.53207 7.16256 2.01573 7.84241 2.64514 8.5209C3.90989 9.88429 5.72229 11.2 8 11.2C10.2777 11.2 12.0901 9.88429 13.3549 8.5209C13.9843 7.84241 14.4679 7.16256 14.7941 6.65213C14.957 6.39727 15.08 6.18562 15.1617 6.0388C15.1692 6.02531 15.1764 6.01237 15.1832 6C15.1764 5.98763 15.1692 5.97469 15.1617 5.9612C15.08 5.81438 14.957 5.60273 14.7941 5.34788C14.4679 4.83745 13.9843 4.15759 13.3549 3.4791C12.0901 2.11571 10.2777 0.8 8 0.8C5.72229 0.8 3.90989 2.11571 2.64514 3.4791C2.01573 4.15759 1.53207 4.83745 1.20588 5.34788C1.04302 5.60273 0.920024 5.81438 0.838304 5.9612C0.830797 5.97469 0.82364 5.98763 0.816833 6ZM15.6191 6C15.9572 6.1844 15.957 6.18471 15.957 6.18471L15.9562 6.18641L15.9542 6.19046L15.9471 6.20452C15.941 6.2165 15.9321 6.23364 15.9207 6.2556C15.8977 6.29951 15.8639 6.36271 15.8195 6.44245C15.7308 6.60188 15.5994 6.82773 15.4268 7.09787C15.082 7.63744 14.57 8.35759 13.9007 9.0791C12.568 10.5157 10.5708 12 8 12C5.42918 12 3.43202 10.5157 2.09934 9.0791C1.43004 8.35759 0.918013 7.63744 0.573201 7.09787C0.400563 6.82773 0.269227 6.60188 0.180491 6.44245C0.136108 6.36271 0.102339 6.29951 0.0793472 6.2556C0.0678503 6.23364 0.0590443 6.2165 0.05295 6.20452L0.0458432 6.19046L0.0438189 6.18641L0.0431897 6.18515C0.0431897 6.18515 0.0428163 6.1844 0.380879 6C0.0428163 5.8156 0.042971 5.81529 0.042971 5.81529L0.0438189 5.81359L0.0458432 5.80954L0.05295 5.79548C0.0590443 5.7835 0.0678503 5.76636 0.0793472 5.7444C0.102339 5.70049 0.136108 5.63729 0.180491 5.55755C0.269227 5.39812 0.400563 5.17227 0.573201 4.90213C0.918013 4.36256 1.43004 3.64241 2.09934 2.9209C3.43202 1.48429 5.42918 0 8 0C10.5708 0 12.568 1.48429 13.9007 2.9209C14.57 3.64241 15.082 4.36256 15.4268 4.90213C15.5994 5.17227 15.7308 5.39812 15.8195 5.55755C15.8639 5.63729 15.8977 5.70049 15.9207 5.7444C15.9321 5.76636 15.941 5.7835 15.9471 5.79548L15.9542 5.80954L15.9562 5.81359L15.9568 5.81485C15.9568 5.81485 15.9572 5.8156 15.6191 6ZM15.6191 6L15.957 6.18471C16.0142 6.06911 16.0144 5.9312 15.9572 5.8156L15.6191 6ZM0.380879 6L0.0428163 6.1844C-0.0143752 6.0688 -0.0142204 5.93089 0.042971 5.81529L0.380879 6ZM8 4.3C7.04892 4.3 6.30301 5.07539 6.30301 6C6.30301 6.92461 7.04892 7.7 8 7.7C8.95107 7.7 9.69699 6.92461 9.69699 6C9.69699 5.07539 8.95107 4.3 8 4.3ZM5.5411 6C5.5411 4.60502 6.65584 3.5 8 3.5C9.34416 3.5 10.4589 4.60502 10.4589 6C10.4589 7.39498 9.34416 8.5 8 8.5C6.65584 8.5 5.5411 7.39498 5.5411 6Z" fill="#41F200"/>
</svg>
