<svg width="22" height="22" viewBox="0 0 16 16" fill="none" xmlns="http://www.w3.org/2000/svg">
<path fill-rule="evenodd" clip-rule="evenodd" d="M0.111578 0.111578C0.26035 -0.0371928 0.501555 -0.0371928 0.650326 0.111578L15.8884 15.3497C16.0372 15.4984 16.0372 15.7397 15.8884 15.8884C15.7397 16.0372 15.4984 16.0372 15.3497 15.8884L11.9735 12.5122C10.8678 13.2091 9.53559 13.7143 8 13.7143C5.4292 13.7143 3.43206 12.3007 2.0994 10.9325C1.4301 10.2453 0.918081 9.55947 0.573272 9.04559C0.400637 8.78831 0.269302 8.57322 0.180566 8.42138C0.136184 8.34544 0.102415 8.28525 0.0794237 8.24343C0.0679269 8.22252 0.059121 8.20619 0.0530267 8.19478L0.04592 8.18139L0.0438957 8.17754L0.0432666 8.17633C0.0432666 8.17633 0.0428931 8.17561 0.380952 8C0.042893 7.82438 0.0429907 7.8242 0.0429907 7.8242L0.0434595 7.8233L0.044494 7.82132L0.0479649 7.81473L0.0604991 7.7913C0.071334 7.77122 0.0871233 7.74234 0.107816 7.70549C0.149194 7.6318 0.210224 7.52611 0.290499 7.39495C0.450958 7.13277 0.688836 6.76793 1.00096 6.35282C1.5585 5.61128 2.36012 4.69969 3.38887 3.92762L0.111578 0.650326C-0.0371928 0.501555 -0.0371928 0.26035 0.111578 0.111578ZM3.93352 4.47227C2.93921 5.20021 2.15678 6.08338 1.60993 6.81069C1.31466 7.2034 1.09029 7.54768 0.940355 7.79267C0.891062 7.87321 0.84987 7.94293 0.816902 8C0.823709 8.01178 0.830866 8.0241 0.838373 8.03695C0.920092 8.17678 1.04309 8.37835 1.20595 8.62107C1.53213 9.10719 2.01579 9.75467 2.64519 10.4009C3.90993 11.6993 5.72231 12.9524 8 12.9524C9.29564 12.9524 10.4395 12.5478 11.4197 11.9585L9.59703 10.1358C9.15195 10.469 8.59877 10.6667 8 10.6667C6.5272 10.6667 5.33333 9.47287 5.33333 8.00008C5.33333 7.40122 5.53105 6.84808 5.86429 6.40304L3.93352 4.47227ZM6.4108 6.94955C6.21122 7.25073 6.09524 7.61164 6.09524 8.00008C6.09524 9.05209 6.94799 9.90484 8 9.90484C8.38852 9.90484 8.74934 9.78883 9.05051 9.58925L6.4108 6.94955ZM0.380952 8L0.0429907 7.8242C-0.0142 7.93429 -0.0142977 8.06552 0.0428931 8.17561L0.380952 8ZM8 3.04762C7.75506 3.04762 7.51583 3.06207 7.28239 3.08939C7.07342 3.11385 6.88419 2.96428 6.85973 2.75531C6.83527 2.54635 6.98484 2.35712 7.1938 2.33266C7.45621 2.30194 7.72502 2.28571 8 2.28571C10.5708 2.28571 12.5679 3.69933 13.9006 5.06753C14.5699 5.75467 15.0819 6.44053 15.4267 6.9544C15.5994 7.21169 15.7307 7.42678 15.8194 7.57861C15.8638 7.65456 15.8976 7.71475 15.9206 7.75657C15.9321 7.77748 15.9409 7.79381 15.947 7.80522L15.9541 7.8186L15.9561 7.82246L15.9567 7.82367C15.9567 7.82367 15.9571 7.82438 15.619 8C15.9571 8.17562 15.957 8.17573 15.957 8.17573L15.9563 8.17718L15.9547 8.18023L15.9492 8.19065C15.9445 8.19951 15.9377 8.21213 15.9289 8.22831C15.9112 8.26067 15.8853 8.30726 15.8514 8.36634C15.7834 8.48446 15.683 8.65271 15.5509 8.85711C15.2869 9.26552 14.8952 9.82044 14.3825 10.4091C14.2443 10.5677 14.0037 10.5843 13.845 10.4461C13.6864 10.3079 13.6698 10.0673 13.808 9.90863C14.292 9.35304 14.6622 8.82853 14.911 8.44357C15.0301 8.25917 15.1211 8.10728 15.1831 8C15.1763 7.98822 15.1691 7.97589 15.1616 7.96305C15.0799 7.82322 14.9569 7.62165 14.794 7.37893C14.4679 6.89281 13.9842 6.24533 13.3548 5.59914C12.0901 4.30067 10.2777 3.04762 8 3.04762ZM15.619 8L15.957 8.17573C16.0142 8.06564 16.0143 7.93448 15.9571 7.82438L15.619 8Z" fill="#41F200"/>
</svg>
