<svg width="77" height="70" viewBox="0 0 77 70" fill="none" xmlns="http://www.w3.org/2000/svg">
<g filter="url(#filter0_d_180_310)">
<path fill-rule="evenodd" clip-rule="evenodd" d="M23.7406 56.914L32.7809 59.3242V56.1725L33.5189 55.4309H38.6847V61.7341H33.1499L26.3235 58.7679L23.7406 56.914Z" fill="#CDBDB2"/>
<path fill-rule="evenodd" clip-rule="evenodd" d="M53.2594 56.914L44.4037 59.3242V56.1725L43.6658 55.4309H38.5V61.7341H44.0347L50.8608 58.7679L53.2594 56.914Z" fill="#CDBDB2"/>
<path fill-rule="evenodd" clip-rule="evenodd" d="M33.5189 50.0547L32.7809 56.1725L33.7032 55.4307H43.2968L44.4037 56.1725L43.6658 50.0547L42.1898 49.1276L34.8101 49.3131L33.5189 50.0547Z" fill="#393939"/>
<path fill-rule="evenodd" clip-rule="evenodd" d="M28.5373 8.71324L32.9652 19.0949L34.9948 49.3133H42.1898L44.4037 19.0949L48.4626 8.71324H28.5373Z" fill="#F89C35"/>
<path fill-rule="evenodd" clip-rule="evenodd" d="M9.1658 31.516L4 46.5323L16.9145 45.7907H25.2165V39.3023L24.8475 25.9544L23.0026 27.4375L9.1658 31.516Z" fill="#F89D35"/>
<path fill-rule="evenodd" clip-rule="evenodd" d="M18.9437 33.1844L34.0722 33.5551L32.4119 41.3414L25.2165 39.4875L18.9437 33.1844Z" fill="#D87C30"/>
<path fill-rule="evenodd" clip-rule="evenodd" d="M18.9437 33.37L25.2165 39.3023L25.2165 45.2348L18.9437 33.37Z" fill="#EA8D3A"/>
<path fill-rule="evenodd" clip-rule="evenodd" d="M25.2165 39.4875L32.5962 41.3416L34.9948 49.3133L33.3342 50.2402L25.2165 45.4201L25.2165 39.4875Z" fill="#F89D35"/>
<path fill-rule="evenodd" clip-rule="evenodd" d="M25.2165 45.4201L23.7406 56.914L33.5189 50.0547L25.2165 45.4201Z" fill="#EB8F35"/>
<path fill-rule="evenodd" clip-rule="evenodd" d="M34.0722 33.5551L34.9948 49.3133L32.2272 41.2487L34.0722 33.5551Z" fill="#EA8E3A"/>
<path fill-rule="evenodd" clip-rule="evenodd" d="M16.7298 45.6057L25.2165 45.4201L23.7406 56.914L16.7298 45.6057Z" fill="#D87C30"/>
<path fill-rule="evenodd" clip-rule="evenodd" d="M8.05884 61.9195L23.7406 56.914L16.7298 45.6057L4 46.5323L8.05884 61.9195Z" fill="#EB8F35"/>
<path fill-rule="evenodd" clip-rule="evenodd" d="M32.9652 19.0949L25.0322 25.769L18.9437 33.1844L34.0722 33.7409L32.9652 19.0949Z" fill="#E8821E"/>
<path fill-rule="evenodd" clip-rule="evenodd" d="M23.7406 56.914L33.5189 50.0547L32.7809 55.9873V59.3242L26.1392 58.0264L23.7406 56.914Z" fill="#DFCEC3"/>
<path fill-rule="evenodd" clip-rule="evenodd" d="M53.2594 56.914L43.6658 50.0547L44.4037 55.9873V59.3242L51.0455 58.0264L53.2594 56.914Z" fill="#DFCEC3"/>
<path fill-rule="evenodd" clip-rule="evenodd" d="M30.0134 36.8922L32.043 41.1563L24.8476 39.3024L30.0134 36.8922Z" fill="#393939"/>
<path fill-rule="evenodd" clip-rule="evenodd" d="M7.87422 0L32.9652 19.0949L28.7221 8.71306L7.87422 0Z" fill="#E88F35"/>
<path fill-rule="evenodd" clip-rule="evenodd" d="M7.87422 0L4.55331 10.1963L6.39824 21.3196L5.10679 22.0611L6.95172 23.7296L5.47577 25.0273L7.50519 26.8812L6.21374 27.9935L9.16563 31.7013L23.0026 27.4375C29.7673 21.9995 33.0882 19.2185 32.9652 19.0949C32.8422 18.9714 24.4786 12.6064 7.87422 0Z" fill="#8E5A30"/>
<path fill-rule="evenodd" clip-rule="evenodd" d="M67.8342 31.5162L73 46.5324L60.0855 45.7909H51.7835V39.3025L52.1524 25.9545L53.9974 27.4377L67.8342 31.5162Z" fill="#F89D35"/>
<path fill-rule="evenodd" clip-rule="evenodd" d="M58.0562 33.1845L42.9278 33.5553L44.5881 41.3416L51.7835 39.4877L58.0562 33.1845Z" fill="#D87C30"/>
<path fill-rule="evenodd" clip-rule="evenodd" d="M58.0562 33.3702L51.7835 39.3025L51.7835 45.235L58.0562 33.3702Z" fill="#EA8D3A"/>
<path fill-rule="evenodd" clip-rule="evenodd" d="M51.7835 39.4877L44.4037 41.3418L42.0052 49.3136L43.6658 50.2404L51.7834 45.4203L51.7835 39.4877Z" fill="#F89D35"/>
<path fill-rule="evenodd" clip-rule="evenodd" d="M51.7834 45.4203L53.2594 56.914L43.6658 50.2404L51.7834 45.4203Z" fill="#EB8F35"/>
<path fill-rule="evenodd" clip-rule="evenodd" d="M42.9278 33.5553L42.0052 49.3136L44.7728 41.2488L42.9278 33.5553Z" fill="#EA8E3A"/>
<path fill-rule="evenodd" clip-rule="evenodd" d="M60.2702 45.6058L51.7834 45.4203L53.2594 56.914L60.2702 45.6058Z" fill="#D87C30"/>
<path fill-rule="evenodd" clip-rule="evenodd" d="M68.9411 61.9197L53.2594 56.914L60.2702 45.6058L73 46.5324L68.9411 61.9197Z" fill="#EB8F35"/>
<path fill-rule="evenodd" clip-rule="evenodd" d="M44.0348 19.0952L51.9678 25.7692L58.0562 33.1845L42.9278 33.741L44.0348 19.0952Z" fill="#E8821E"/>
<path fill-rule="evenodd" clip-rule="evenodd" d="M46.9866 36.8923L44.957 41.1564L52.1524 39.3025L46.9866 36.8923Z" fill="#393939"/>
<path fill-rule="evenodd" clip-rule="evenodd" d="M69.1257 0.000159207L44.0348 19.0952L48.2779 8.71321L69.1257 0.000159207Z" fill="#E88F35"/>
<path fill-rule="evenodd" clip-rule="evenodd" d="M69.1257 0.000159207L72.4467 10.1965L70.6017 21.3197L71.8932 22.0613L70.0483 23.7298L71.5242 25.0275L69.4948 26.8814L70.7862 27.9937L67.8343 31.7015L53.9974 27.4377C47.2326 21.9996 43.9118 19.2188 44.0348 19.0952C44.1578 18.9716 52.5214 12.6065 69.1257 0.000159207Z" fill="#8E5A30"/>
</g>
<defs>
<filter id="filter0_d_180_310" x="0" y="0" width="77" height="69.9197" filterUnits="userSpaceOnUse" color-interpolation-filters="sRGB">
<feFlood flood-opacity="0" result="BackgroundImageFix"/>
<feColorMatrix in="SourceAlpha" type="matrix" values="0 0 0 0 0 0 0 0 0 0 0 0 0 0 0 0 0 0 127 0" result="hardAlpha"/>
<feOffset dy="4"/>
<feGaussianBlur stdDeviation="2"/>
<feComposite in2="hardAlpha" operator="out"/>
<feColorMatrix type="matrix" values="0 0 0 0 0 0 0 0 0 0 0 0 0 0 0 0 0 0 0.25 0"/>
<feBlend mode="normal" in2="BackgroundImageFix" result="effect1_dropShadow_180_310"/>
<feBlend mode="normal" in="SourceGraphic" in2="effect1_dropShadow_180_310" result="shape"/>
</filter>
</defs>
</svg>