<svg width="71" height="71" viewBox="0 0 71 71" fill="none" xmlns="http://www.w3.org/2000/svg">
<path d="M44.8118 35.5427C45.0271 35.7604 45.1472 36.0537 45.1462 36.359C45.1452 36.6642 45.0231 36.9567 44.8064 37.173C43.8916 38.0899 43.0326 38.9547 42.1009 39.8795C41.5173 40.4593 41.1372 40.4593 40.5567 39.8823C36.5635 35.9155 32.5716 31.9474 28.581 27.9779C26.0464 25.4578 23.5118 22.9379 20.9771 20.4181C20.8797 20.3214 20.7705 20.2362 20.6668 20.1456C20.0608 19.5303 19.4548 18.9147 18.849 18.299C18.3041 17.7432 18.2986 17.3425 18.8504 16.794C24.3438 11.334 29.8389 5.8758 35.3355 0.419309C35.899 -0.140467 36.2793 -0.13627 36.8435 0.410912C37.5132 1.05999 38.1815 1.71053 38.8485 2.36253C39.0851 2.61263 39.3168 2.86773 39.5596 3.11183C40.1969 3.75158 40.205 4.13602 39.5729 4.76457C37.2588 7.06512 34.9438 9.3646 32.6278 11.663C30.8274 13.4518 29.0278 15.2412 27.229 17.0313C26.7776 17.4809 26.7744 17.6086 27.2161 18.0459C28.2468 19.0661 29.2803 20.0823 30.3168 21.0944C31.826 22.6094 33.3319 24.1292 34.8476 25.6386C38.1611 28.94 41.4788 32.2377 44.8007 35.5317L44.8118 35.5427Z" fill="#5C1DBB"/>
<path d="M36.1191 38.3945C35.3317 37.0519 34.2588 35.9609 33.0756 34.9679C31.7632 33.8667 30.2558 32.8525 28.4355 32.754C27.8536 32.7294 27.2978 32.9139 26.7002 33.1196C25.8786 33.4015 25.1268 33.83 24.3901 34.2844C24.2597 34.3643 24.1048 34.4631 23.9571 34.3517C23.7788 34.2176 23.8782 34.0397 23.938 33.8813C23.9927 33.7366 24.0826 33.6052 24.1311 33.4591C24.3726 32.734 24.733 32.182 24.8815 31.247C25.1417 29.6846 24.6519 28.4179 23.7705 27.2138C22.3064 25.2132 20.5864 23.5009 18.2334 22.5329C16.8333 22.0978 15.466 22.2032 14.1188 22.761C12.5211 23.4227 11.1833 24.4635 9.97054 25.6532C6.74954 28.812 3.55872 32.0029 0.360253 35.1852C-0.142808 35.685 -0.114838 36.1268 0.418005 36.6566C2.56279 38.79 4.70764 40.9234 6.85257 43.0567C8.63824 44.8381 10.4201 46.6233 12.1983 48.4123C12.6084 48.8064 13.0251 49.1938 13.4276 49.5953C15.5545 51.7164 17.6795 53.8394 19.8026 55.9643C20.5902 56.7356 21.3779 57.5078 22.1658 58.2808C22.8389 58.9405 23.192 58.9431 23.8643 58.2726C27.331 54.814 30.7964 51.3542 34.2606 47.8933C34.9387 47.0245 35.6271 46.1664 36.1766 45.2032C37.4816 42.9153 37.4444 40.6548 36.1191 38.3945ZM18.6679 34.9229C18.3322 35.5309 17.9056 36.0725 17.4159 36.5637C16.5255 37.4566 15.6315 38.3461 14.7339 39.232C14.2393 39.7198 13.7974 39.7228 13.2968 39.2304C12.2504 38.2011 11.209 37.1662 10.1724 36.1258C9.64597 35.5979 9.6504 35.1964 10.1822 34.6594C10.4974 34.3412 13.0465 31.6654 14.2588 30.9275C15.4201 30.221 16.3069 30.2778 17.3656 31.1274C17.6791 31.3789 18.0497 31.696 18.3516 32.0059C18.6865 32.3457 18.9153 32.7746 19.0102 33.2408C19.1261 33.8276 18.9961 34.3288 18.6679 34.9229ZM29.0623 43.296C28.9487 43.758 28.643 44.1344 28.3643 44.4985C28.2368 44.664 28.0999 44.8221 27.9542 44.9721C26.7116 46.2622 25.4423 47.5269 24.1688 48.7868C23.7802 49.171 23.3504 49.1744 22.9477 48.818C22.9276 48.8004 22.9075 48.7818 22.8874 48.7622C22.7694 48.6466 22.6517 48.5308 22.534 48.4147C21.5225 47.4187 20.5191 46.4141 19.5128 45.4127C19.377 45.2776 19.1909 45.0579 19.1997 44.8478C19.1895 44.4967 19.2927 44.3248 19.5217 44.0969C20.7119 42.9161 21.8989 41.7322 23.0999 40.5621C23.5967 40.0779 24.1462 39.648 24.793 39.3765C25.3419 39.146 26.1383 39.0567 26.7851 39.4325C27.7731 40.0069 28.5633 40.77 28.9998 41.842L29.012 41.8725C29.1982 42.3364 29.207 42.7654 29.0623 43.296Z" fill="#41F200"/>
<path d="M63.5827 29.3417C63.0579 29.865 62.5327 30.3881 62.0073 30.9111C61.307 31.6068 60.9355 31.5457 60.2651 30.8404C59.6815 30.2274 57.0835 27.6776 56.3718 27.3655C55.7606 27.0976 54.9779 27.1174 54.3764 27.4077C53.228 27.9619 52.5318 28.6038 51.9048 29.685C51.5844 30.2374 51.4925 31.0411 51.8333 31.5875C52.202 32.1786 52.7131 32.793 53.2139 33.2708C53.4208 33.4681 54.9229 35.1272 55.6298 35.7608C56.2957 36.3575 56.31 36.7362 55.6868 37.3529C55.1217 37.9127 54.5577 38.4725 53.9846 39.0233C53.4725 39.5155 53.2043 39.5485 52.6068 39.1772C51.4098 38.4333 50.3771 37.4855 49.3392 36.5453C49.2118 36.4299 49.0776 36.3212 48.948 36.2092C48.1481 35.3545 47.3452 34.5067 46.7083 33.5135C45.4443 31.5427 45.4561 29.5791 46.6435 27.5868C46.9987 26.9909 47.4243 26.4487 47.8551 25.9103C48.4047 25.2201 49.0079 24.5737 49.6591 23.9771C49.8905 23.7662 50.1259 23.5637 50.3678 23.3679C51.0688 22.8006 51.8347 22.3174 52.6497 21.9285C53.0864 21.7206 53.5363 21.5423 54.018 21.4337C56.0796 20.9695 57.7771 21.7572 59.3646 22.9381C60.2397 23.5894 60.9714 24.3935 61.741 25.1572C62.4266 26.0187 63.1562 26.8463 63.7569 27.7724C64.2179 28.4811 64.191 28.7352 63.5827 29.3417Z" fill="#41F200"/>
<path d="M50.3469 55.0785C49.971 53.8606 48.7749 53.3274 47.6426 53.8703L47.6388 53.8719C47.6252 53.8769 47.6103 53.8775 47.5963 53.8736C47.5823 53.8697 47.5699 53.8616 47.5607 53.8504C47.5516 53.8391 47.5463 53.8253 47.5454 53.8109C47.5446 53.7965 47.5483 53.7822 47.5561 53.77C47.5748 53.7406 47.5927 53.7136 47.6028 53.6974C48.126 52.8578 47.6346 52.191 46.8351 51.5713C46.1783 51.0623 45.6119 51.1083 44.9223 51.7046C44.6096 51.9749 44.3186 52.2702 44.0168 52.5543C43.7411 52.837 43.4763 53.1314 43.1865 53.3991C42.9529 53.6149 42.9702 53.7822 43.1883 53.9973C44.6456 55.4358 46.0978 56.8793 47.5448 58.328C47.7626 58.5463 47.9272 58.5627 48.1445 58.3362C48.3934 58.0763 48.6677 57.8414 48.9309 57.5955C49.283 57.2178 49.645 56.8486 49.9845 56.4599C50.3316 56.0641 50.5115 55.6125 50.3469 55.0785ZM46.4902 53.9989C46.3508 54.1496 45.8684 54.7022 45.7328 54.5915C45.4454 54.3552 45.1798 54.0939 44.9394 53.8106C44.8231 53.6742 45.3768 53.1944 45.531 53.0577C45.8437 52.7804 46.1493 52.802 46.4496 53.0941C46.7498 53.3861 46.777 53.6888 46.49 53.9987L46.4902 53.9989ZM47.8113 56.6336C47.6885 56.6264 46.8895 55.7894 46.9068 55.686C46.9269 55.5683 47.212 55.2692 47.4829 55.0081C47.5455 54.9476 47.6197 54.9001 47.701 54.8684C47.7823 54.8367 47.8692 54.8215 47.9565 54.8235C48.0438 54.8255 48.1299 54.8448 48.2096 54.8803C48.2894 54.9157 48.3612 54.9666 48.421 55.0299C48.7528 55.3344 48.7701 55.679 48.4636 56.0573C48.2383 56.335 47.9022 56.6388 47.8113 56.6334V56.6336Z" fill="#3DE400"/>
<path d="M66.1467 40.146C65.3953 39.8939 64.6238 39.6358 63.8527 39.3755C63.4919 39.2538 63.1367 39.113 62.7705 39.0107C62.5894 38.9603 62.3479 38.7678 62.2121 39.0211C62.0839 39.261 62.3638 39.3745 62.4995 39.5079C63.14 40.138 63.7764 40.7744 64.4485 41.3703C64.8055 41.6868 64.7123 41.8927 64.4167 42.1586C64.1435 42.4045 63.9539 42.708 63.541 42.2848C62.1898 40.8993 60.7699 39.5831 59.4054 38.2104C59.2444 38.0487 58.9038 37.8228 59.1452 37.5561C59.5664 37.0363 59.8413 36.8653 60.2304 36.9945C61.2658 37.3378 62.2948 37.6988 63.3317 38.0369C63.5641 38.1126 63.8768 38.3492 64.0471 38.1011C64.2398 37.8196 63.8573 37.6758 63.6919 37.5111C63.0681 36.8889 62.4393 36.269 61.7803 35.6838C61.3953 35.3422 61.5446 35.1214 61.8406 34.8498C62.125 34.5883 62.3155 34.2804 62.7502 34.731C64.1056 36.1362 65.4971 37.5079 66.8982 38.8693C67.2367 39.1982 67.231 39.4291 66.8805 39.6996C66.6588 39.8703 66.5342 40.194 66.1467 40.146Z" fill="#3DE400"/>
<path d="M68.2086 37.7332C67.7595 37.696 67.3459 37.5823 66.9781 37.3348C65.9054 36.6126 64.9719 35.7522 64.3068 34.6338C63.8136 33.8048 63.8678 32.9955 64.4437 32.2232C64.8176 31.7218 65.2761 31.3068 65.7691 30.9213C66.1014 30.6614 66.2533 30.5643 66.6457 30.9889C66.7386 31.0889 66.8407 31.1846 66.9336 31.2862C67.1614 31.5351 67.1777 31.6798 66.9552 31.8717C66.9199 31.9018 66.8828 31.9295 66.8439 31.9547C66.4264 32.232 66.0539 32.5709 65.7774 32.9981C65.4001 33.5819 65.4152 34.0329 65.867 34.5523C66.331 35.0851 66.7994 35.6194 67.3989 36.0133C68.0553 36.4445 69.2723 35.9417 69.3592 35.164C69.4059 34.7442 68.9624 34.5529 68.6879 34.3166C68.4915 34.1474 68.3374 34.3691 68.2315 34.5165C67.979 34.8695 67.7432 34.8342 67.4898 34.5239C67.4142 34.4294 67.3278 34.3441 67.2323 34.2696C66.9059 34.0215 66.9113 33.796 67.2224 33.5243C67.5468 33.2408 67.8422 32.9245 68.1406 32.612C68.3217 32.4223 68.4782 32.4171 68.6658 32.6058C69.3962 33.3401 70.1308 34.0705 70.8694 34.797C71.0119 34.9369 71.0197 35.0925 70.9779 35.271C70.7601 36.2024 69.3491 37.5357 68.4022 37.7002C68.3356 37.7124 68.2673 37.7234 68.2086 37.7332Z" fill="#3DE400"/>
<path d="M50.2881 47.9319C50.34 48.0037 50.3646 48.0915 50.3574 48.1796C50.3502 48.2677 50.3118 48.3504 50.2489 48.4129C50.2215 48.4403 50.1932 48.4665 50.1662 48.4929C49.7756 48.8833 49.3923 49.2816 48.9882 49.658C48.722 49.8979 48.6795 49.9943 48.9747 50.2886C49.0882 50.3885 49.2062 50.5031 49.3227 50.6057C49.5613 50.8154 49.6911 50.8386 49.9123 50.6153C50.24 50.2844 50.5815 49.9657 50.8999 49.6263C51.1136 49.3983 51.2725 49.4063 51.5035 49.619C52.2597 50.315 52.267 50.3062 51.5317 51.0253C51.3707 51.1822 51.258 51.3122 51.054 51.4987C50.72 51.8044 50.72 52.0503 51.0389 52.3548C51.6023 52.868 51.5822 52.8907 52.1293 52.3472C52.46 52.0185 52.795 51.6942 53.1153 51.357C53.324 51.137 53.4977 51.1171 53.723 51.3454C54.5931 52.225 54.4984 51.9913 53.7633 52.74C53.195 53.3198 52.604 53.8761 52.044 54.4627C51.7778 54.7414 51.5838 54.7952 51.283 54.4901C49.8889 53.0773 48.4822 51.677 47.0629 50.289C46.7657 49.9987 46.7758 49.8138 47.0693 49.5359C47.7587 48.8835 48.4316 48.214 49.088 47.5275C49.379 47.2238 49.5577 47.2178 49.8798 47.5287C50.002 47.6462 50.1724 47.7732 50.2881 47.9319Z" fill="#3DE400"/>
<path d="M60.4922 45.9869C60.3049 46.2891 60.0516 46.5455 59.7509 46.7372C59.5153 46.8893 59.3809 46.6254 59.2443 46.4913C58.2222 45.4853 57.1968 44.4819 56.1969 43.4541C55.8806 43.1288 55.6685 43.0591 55.3232 43.4281C54.7038 44.0903 54.7038 44.0903 53.8033 43.21C53.625 43.0301 53.7613 42.8955 53.8939 42.7636C54.739 41.9239 55.5872 41.0843 56.4263 40.2374C56.6293 40.0325 56.8024 40.0163 56.9887 40.2408C57 40.2538 57.0122 40.266 57.0251 40.2774C57.7852 40.9753 57.797 40.9873 57.0654 41.6968C56.775 41.9787 56.769 42.1672 57.0612 42.4505C58.1156 43.4729 59.1509 44.5149 60.1894 45.5535C60.3083 45.6722 60.4673 45.7688 60.4922 45.9869Z" fill="#3DE400"/>
<path d="M56.8501 49.6488C56.6567 49.9149 56.4863 50.0847 56.1792 50.3052C55.9908 50.4101 55.789 50.1714 55.6482 50.0337C54.6129 49.0203 53.581 48.0027 52.5694 46.9659C52.278 46.6672 52.0837 46.633 51.7792 46.9519C51.0717 47.6926 50.9107 47.5235 50.2298 46.773C50.0603 46.5917 50.1748 46.4607 50.3083 46.3284C51.1534 45.4903 51.9748 44.629 52.8385 43.8094C53.1284 43.5345 53.1284 43.5345 53.4079 43.7996C53.4705 43.8596 53.5331 43.9183 53.5947 43.9795C54.1957 44.5687 54.1957 44.5687 53.5937 45.1696C53.1194 45.643 53.1208 45.6416 53.6061 46.1232C54.6102 47.1194 55.6131 48.1169 56.6148 49.1159C56.702 49.2028 56.8078 49.2796 56.8702 49.3991C56.8903 49.4386 56.8991 49.4827 56.8955 49.5268C56.892 49.5709 56.8763 49.6131 56.8501 49.6488Z" fill="#3DE400"/>
<path d="M63.0092 43.4851C62.8249 43.7916 62.5688 44.0493 62.2628 44.2364C62.032 44.3763 61.898 44.1101 61.7598 43.9739C60.3596 42.5893 58.9754 41.1882 57.5612 39.818C57.2054 39.4731 57.3751 39.2982 57.6348 39.0359C57.8763 38.7932 58.0896 38.4085 58.5436 38.8759C59.9278 40.2996 61.3519 41.685 62.7604 43.0853C62.8697 43.1932 62.9959 43.2912 63.0092 43.4851Z" fill="#3DE400"/>
<path d="M36.0128 56.6866C35.6979 56.9903 35.9324 57.5215 36.3706 57.4981C36.9886 57.4647 37.5856 57.2782 38.1935 57.1814C39.6119 56.9565 41.0229 56.6856 42.4355 56.4267C42.9376 56.3348 43.3582 56.4685 43.7147 56.824C44.5092 57.6163 45.3042 58.4081 46.0998 59.1994C46.3598 59.4571 46.5355 59.7458 46.4238 60.1215C46.3073 60.5127 46.0053 60.6898 45.6165 60.7532C43.7721 61.0537 41.9275 61.356 40.0828 61.66C39.9126 61.688 39.5608 61.7424 39.5608 61.7424C39.5608 61.7424 38.6845 61.8836 38.245 61.9729C37.8371 62.0561 37.6583 62.3596 37.5852 62.7462C37.2753 64.3856 36.9629 66.0249 36.6479 67.6642C36.4827 68.5259 36.3314 69.3907 36.1402 70.2468C35.9646 71.0329 35.2333 71.2464 34.6493 70.6832C33.8163 69.8802 32.9993 69.0607 32.1874 68.2358C31.8266 67.869 31.7095 67.4405 31.8354 66.9109C32.3286 64.8352 32.7908 62.7526 33.2607 60.671C33.2769 60.5941 33.288 60.5161 33.2939 60.4377C33.314 60.2214 33.1583 60.0221 32.9409 59.9979C32.7709 59.9795 32.6037 60.0695 32.4286 60.2456C31.3362 61.3452 30.2325 62.4337 29.1322 63.5255C28.4882 64.1652 28.21 64.1796 27.4974 63.6157C26.8061 62.9171 26.1147 62.2188 25.4232 61.5207C24.7243 60.819 24.7189 60.4905 25.4172 59.7998C29.1197 56.1322 32.8222 52.465 36.5248 48.7982C36.6465 48.6782 36.7572 48.5459 36.8731 48.4193C38.7324 46.5905 40.5916 44.7613 42.4508 42.9319C43.8163 41.5855 45.1742 40.2312 46.5405 38.8855C47.146 38.2892 47.5193 38.2932 48.1278 38.8911C48.8549 39.6056 49.5784 40.3238 50.2984 41.0455C50.864 41.6134 50.8588 42.0163 50.2819 42.5873C47.6044 45.237 44.9262 47.8859 42.2474 50.5341C42.1009 50.6792 41.9687 50.8386 41.8298 50.9913C40.3609 52.4265 38.892 53.8618 37.423 55.2974C36.954 55.7562 36.496 56.2266 36.0197 56.6782L36.0128 56.6866Z" fill="#5C1DBB"/>
<path d="M50.9878 16.5441C50.9408 15.8361 50.7335 15.1479 50.3813 14.5307C49.2534 12.5882 47.1617 10.2818 44.6814 8.79157C43.2058 7.90472 41.4041 7.7092 39.7858 8.30136C39.2053 8.51388 38.6388 8.81496 38.0847 9.19161C36.3097 10.3985 34.8073 11.8843 33.608 13.659C32.5932 15.1604 32.0125 16.7798 32.3997 18.6244C32.4894 18.8843 32.5645 19.1492 32.6713 19.4013C33.7438 21.9307 35.6046 23.7956 37.8209 25.339C39.2035 26.3022 40.5718 26.646 42.0265 26.5269C43.0013 26.445 43.947 26.1561 44.7997 25.6796C44.8913 25.6286 44.976 25.5781 45.0497 25.5287C46.8957 24.2906 48.4202 22.727 49.6758 20.9085C50.5785 19.6004 51.0981 18.173 50.9878 16.5441ZM45.0744 19.0309C44.4707 19.8681 43.6876 20.5637 42.7903 21.1138C42.2204 21.4633 41.7385 21.5187 41.1093 21.5269C39.419 21.5269 37.8027 20.2504 37.2977 18.7918C36.7616 17.2434 37.4305 16.0775 38.3497 14.9683C38.8113 14.4113 39.357 13.9317 39.9412 13.4917C41.1962 12.5465 43.2095 12.7382 44.5333 13.8679C44.8619 14.1478 45.601 14.8379 45.8284 15.6472C46.1978 16.9615 45.793 18.0357 45.0744 19.0309Z" fill="#5C1DBB"/>
</svg>