<svg width="26" height="26" viewBox="0 0 26 26" fill="none" xmlns="http://www.w3.org/2000/svg">
<path fill-rule="evenodd" clip-rule="evenodd" d="M1.2692 1.2692C2.08186 0.456546 3.18406 0 4.33333 0H21.6667C22.8159 0 23.9181 0.456546 24.7308 1.2692C25.5435 2.08186 26 3.18406 26 4.33333L26 14.4444C26 14.8275 25.8478 15.1949 25.5769 15.4658L15.4658 25.5769C15.1949 25.8478 14.8275 26 14.4444 26L4.33333 26C3.18406 26 2.08186 25.5435 1.2692 24.7308C0.456546 23.9181 0 22.8159 0 21.6667V4.33333C0 3.18406 0.456546 2.08186 1.2692 1.2692ZM4.33333 2.88889C3.95024 2.88889 3.58284 3.04107 3.31196 3.31196C3.04107 3.58284 2.88889 3.95024 2.88889 4.33333V21.6667C2.88889 22.0498 3.04107 22.4172 3.31196 22.688C3.58284 22.9589 3.95024 23.1111 4.33333 23.1111L13 23.1111L13 15.8889C13 15.1227 13.3044 14.3879 13.8461 13.8461C14.3879 13.3044 15.1227 13 15.8889 13L23.1111 13L23.1111 4.33333C23.1111 3.95024 22.9589 3.58284 22.688 3.31196C22.4172 3.04107 22.0498 2.88889 21.6667 2.88889H4.33333ZM21.0683 15.8889L15.8889 15.8889L15.8889 21.0683L21.0683 15.8889Z" fill="#41F200"/>
</svg>
