<svg width="26" height="26" viewBox="0 0 26 26" fill="none" xmlns="http://www.w3.org/2000/svg">
<path d="M20.2239 25.9933C20.0156 25.9942 19.8101 25.9426 19.6247 25.8428L12.9805 22.1909L6.33626 25.8428C6.12051 25.9619 5.87726 26.0151 5.63416 25.9963C5.39106 25.9775 5.15786 25.8874 4.96108 25.7364C4.76429 25.5854 4.61182 25.3794 4.52098 25.1419C4.43014 24.9044 4.40459 24.645 4.44722 24.393L5.75001 16.6924L0.382536 11.2214C0.215073 11.0459 0.0962775 10.8259 0.0388979 10.5849C-0.0184817 10.344 -0.0122791 10.0911 0.0568402 9.85358C0.132349 9.61049 0.271248 9.39449 0.457772 9.23009C0.644297 9.06569 0.870979 8.95948 1.1121 8.9235L8.53796 7.78824L11.808 0.771574C11.9146 0.540323 12.0812 0.345297 12.2886 0.208837C12.4959 0.0723759 12.7357 0 12.9805 0C13.2252 0 13.465 0.0723759 13.6724 0.208837C13.8797 0.345297 14.0463 0.540323 14.153 0.771574L17.462 7.77457L24.8879 8.90982C25.129 8.9458 25.3557 9.05201 25.5422 9.21641C25.7288 9.38081 25.8677 9.59681 25.9432 9.8399C26.0123 10.0774 26.0185 10.3303 25.9611 10.5712C25.9037 10.8122 25.7849 11.0322 25.6175 11.2077L20.25 16.6788L21.5528 24.3793C21.5993 24.6357 21.5749 24.9008 21.4826 25.1431C21.3903 25.3855 21.2338 25.5951 21.0317 25.7471C20.7958 25.9207 20.5117 26.0072 20.2239 25.9933ZM12.9805 19.2912C13.1893 19.2857 13.3959 19.3375 13.5797 19.4417L18.4912 22.1772L17.5532 16.4189C17.5168 16.199 17.5322 15.9731 17.5981 15.761C17.6639 15.5488 17.7783 15.3567 17.931 15.2016L21.8394 11.194L16.3677 10.346C16.167 10.3036 15.9787 10.2121 15.818 10.079C15.6573 9.94596 15.5288 9.77501 15.4427 9.58002L12.9805 4.45088L10.5182 9.58002C10.4239 9.77658 10.2859 9.94635 10.1158 10.0749C9.9457 10.2035 9.74855 10.2871 9.54111 10.3186L4.06942 11.1666L7.97777 15.1742C8.13055 15.3294 8.24486 15.5214 8.31071 15.7336C8.37657 15.9458 8.39197 16.1717 8.35557 16.3915L7.41757 22.0815L12.3291 19.3459C12.5372 19.2647 12.7627 19.2457 12.9805 19.2912Z" fill="#41F200"/>
</svg>