<svg width="26" height="29" viewBox="0 0 26 29" fill="none" xmlns="http://www.w3.org/2000/svg">
<path fill-rule="evenodd" clip-rule="evenodd" d="M11.9976 2.67716C12.6646 2.61918 13.3354 2.61918 14.0024 2.67716C14.0656 2.68243 14.192 2.74036 14.2429 2.93347L14.7503 4.87332C15.0083 5.85641 15.7158 6.5709 16.5005 6.96063C16.806 7.1116 17.0992 7.28189 17.38 7.46973C18.1121 7.95776 19.0829 8.21231 20.066 7.94372L22.0006 7.4118C22.1937 7.35913 22.3078 7.43988 22.3429 7.49255C22.7274 8.03676 23.0627 8.61784 23.3488 9.22876C23.3734 9.28318 23.3874 9.42186 23.2452 9.5623L21.8145 10.9773C21.093 11.69 20.8279 12.6573 20.8841 13.5333C20.9057 13.8735 20.9057 14.2148 20.8841 14.555C20.8279 15.431 21.093 16.3983 21.8145 17.111L23.2452 18.526C23.3857 18.6664 23.3734 18.8051 23.3488 18.8595C23.0653 19.4673 22.7287 20.0489 22.3429 20.5975C22.3078 20.6484 22.1919 20.7274 22.0006 20.6765L20.0642 20.1446C19.0829 19.876 18.1121 20.1305 17.38 20.6186C17.0992 20.8064 16.806 20.9767 16.5023 21.1277C15.7141 21.5174 15.0083 22.2301 14.7503 23.215L14.2429 25.1548C14.192 25.3479 14.0656 25.4059 14.0024 25.4111C13.3354 25.4689 12.6646 25.4689 11.9976 25.4111C11.9344 25.4059 11.808 25.3462 11.7571 25.1548L11.2498 23.215C10.9917 22.2319 10.2842 21.5174 9.49953 21.1277C9.19574 20.977 8.90196 20.8069 8.62002 20.6186C7.88796 20.1305 6.91716 19.876 5.93407 20.1446L3.99949 20.6765C3.80639 20.7292 3.69228 20.6484 3.65717 20.5957C3.27147 20.0477 2.93486 19.4667 2.65126 18.8595C2.62668 18.8051 2.61263 18.6664 2.75483 18.526L4.18558 17.111C4.9071 16.3983 5.17218 15.431 5.116 14.555C5.09437 14.2148 5.09437 13.8735 5.116 13.5333C5.17218 12.6573 4.9071 11.69 4.18558 10.9773L2.75483 9.5623C2.61439 9.42186 2.62668 9.28318 2.65126 9.22876C2.93434 8.62075 3.27098 8.03913 3.65717 7.49079C3.69228 7.43988 3.80814 7.35913 3.99949 7.4118L5.93583 7.94372C6.91716 8.21231 7.88796 7.95776 8.62002 7.46973C8.9009 7.28189 9.19407 7.1116 9.49777 6.96063C10.286 6.5709 10.9917 5.85816 11.2498 4.87332L11.7571 2.93347C11.808 2.74036 11.9344 2.68243 11.9976 2.67716ZM13 0C12.5857 0 12.1749 0.0175552 11.7694 0.0526655C10.4651 0.166774 9.5048 1.13231 9.20987 2.26637L8.70077 4.20798C8.67093 4.32384 8.56384 4.48535 8.33036 4.60121C7.92531 4.80167 7.53361 5.02802 7.15767 5.27884C6.94174 5.42279 6.74863 5.43684 6.63101 5.40348L4.69643 4.87332C3.56588 4.56259 2.25275 4.90843 1.50139 5.97929C1.02735 6.65368 0.613784 7.36862 0.265507 8.11576C-0.287481 9.30073 0.0706443 10.6121 0.90276 11.4354L2.33351 12.8504C2.42128 12.9347 2.50555 13.1084 2.48799 13.3665C2.4593 13.8178 2.4593 14.2705 2.48799 14.7218C2.50555 14.9798 2.42128 15.1536 2.33351 15.2379L0.90276 16.6528C0.0706443 17.4762 -0.287481 18.7875 0.265507 19.9725C0.61661 20.7239 1.03091 21.4384 1.50139 22.1107C2.25275 23.1799 3.56588 23.5257 4.69643 23.2167L6.63277 22.6848C6.74863 22.6514 6.94174 22.6655 7.15767 22.8094C7.53159 23.0605 7.92308 23.2869 8.33036 23.4871C8.56384 23.6029 8.67093 23.7644 8.70253 23.8803L9.20987 25.8219C9.50655 26.956 10.4651 27.9215 11.7694 28.0339C12.5883 28.105 13.4118 28.105 14.2306 28.0339C15.535 27.9215 16.4953 26.956 16.7902 25.8219L17.2993 23.8803C17.3291 23.7644 17.4362 23.6029 17.6697 23.4871C18.0748 23.2867 18.4665 23.0603 18.8424 22.8094C19.0583 22.6655 19.2514 22.6514 19.369 22.6848L21.3036 23.215C22.4342 23.5257 23.7473 23.1799 24.4987 22.109C24.9692 21.4384 25.3852 20.7239 25.7346 19.9725C26.2875 18.7875 25.9294 17.4762 25.0955 16.6528L23.6666 15.2379C23.5788 15.1536 23.4945 14.9798 23.5121 14.7218C23.5407 14.2705 23.5407 13.8178 23.5121 13.3665C23.4945 13.1084 23.5805 12.9347 23.6666 12.8504L25.0955 11.4354C25.9294 10.6121 26.2875 9.30073 25.7346 8.11576C25.3862 7.36807 24.9727 6.65256 24.4987 5.97754C23.7473 4.90843 22.4342 4.56259 21.3036 4.87156L19.3673 5.40348C19.2514 5.43684 19.0583 5.42279 18.8424 5.27884C18.4665 5.028 18.0748 4.80166 17.6697 4.60121C17.4362 4.48535 17.3291 4.32384 17.2975 4.20798L16.7919 2.26462C16.4935 1.13231 15.535 0.166774 14.2306 0.054421C13.8214 0.0185001 13.4108 0.000342671 13 0ZM15.6333 14.0441C15.6333 14.7425 15.3559 15.4123 14.862 15.9061C14.3682 16.4 13.6984 16.6774 13 16.6774C12.3016 16.6774 11.6319 16.4 11.138 15.9061C10.6442 15.4123 10.3668 14.7425 10.3668 14.0441C10.3668 13.3458 10.6442 12.676 11.138 12.1821C11.6319 11.6883 12.3016 11.4109 13 11.4109C13.6984 11.4109 14.3682 11.6883 14.862 12.1821C15.3559 12.676 15.6333 13.3458 15.6333 14.0441ZM18.2666 14.0441C18.2666 15.4409 17.7117 16.7805 16.724 17.7682C15.7364 18.7558 14.3968 19.3107 13 19.3107C11.6033 19.3107 10.2637 18.7558 9.27602 17.7682C8.28835 16.7805 7.73348 15.4409 7.73348 14.0441C7.73348 12.6474 8.28835 11.3078 9.27602 10.3201C10.2637 9.33246 11.6033 8.77759 13 8.77759C14.3968 8.77759 15.7364 9.33246 16.724 10.3201C17.7117 11.3078 18.2666 12.6474 18.2666 14.0441Z" fill="#41F200"/>
</svg>