<svg width="17" height="20" viewBox="0 0 17 20" fill="none" xmlns="http://www.w3.org/2000/svg">
<path d="M1.6847 3.47542L1.68421 14.1667C1.68421 16.3758 3.42153 18.1834 5.61789 18.3245L5.89474 18.3333L13.3295 18.3345C12.9824 19.3049 12.0469 20 10.9474 20H5.05263C2.26214 20 0 17.7614 0 15V5.83333C0 4.74464 0.703231 3.81848 1.6847 3.47542ZM14.3158 0C15.711 0 16.8421 1.11929 16.8421 2.5V14.1667C16.8421 15.5474 15.711 16.6667 14.3158 16.6667H5.89474C4.49949 16.6667 3.36842 15.5474 3.36842 14.1667V2.5C3.36842 1.11929 4.49949 0 5.89474 0H14.3158ZM14.3158 1.66667H5.89474C5.42966 1.66667 5.05263 2.03976 5.05263 2.5V14.1667C5.05263 14.6269 5.42966 15 5.89474 15H14.3158C14.7809 15 15.1579 14.6269 15.1579 14.1667V2.5C15.1579 2.03976 14.7809 1.66667 14.3158 1.66667Z" fill="#41F200"/>
</svg>