<svg width="25" height="25" viewBox="0 0 25 25" fill="none" xmlns="http://www.w3.org/2000/svg">
<path fill-rule="evenodd" clip-rule="evenodd" d="M13.8079 2.54C13.4235 1.23523 11.5765 1.23523 11.1921 2.54L11.0452 3.03847C10.9217 3.45716 10.7061 3.84292 10.4141 4.16748C10.1222 4.49204 9.76138 4.74719 9.35807 4.91424C8.95476 5.08129 8.51919 5.156 8.08327 5.1329C7.64735 5.10981 7.22211 4.98949 6.83871 4.78077L6.38243 4.53075C5.18861 3.88227 3.88227 5.18704 4.53231 6.38243L4.78077 6.83871C4.98949 7.22211 5.10981 7.64735 5.1329 8.08327C5.156 8.51919 5.08129 8.95476 4.91424 9.35807C4.74719 9.76138 4.49204 10.1222 4.16748 10.4141C3.84292 10.7061 3.45716 10.9217 3.03847 11.0452L2.54 11.1921C1.23523 11.5765 1.23523 13.4235 2.54 13.8079L3.03847 13.9548C3.45738 14.0783 3.84335 14.2939 4.16807 14.586C4.4928 14.878 4.74805 15.239 4.91512 15.6425C5.08219 16.046 5.15683 16.4818 5.13359 16.9179C5.11034 17.354 4.98979 17.7794 4.78077 18.1629L4.53075 18.6176C3.88227 19.8114 5.18704 21.1177 6.38243 20.4677L6.83871 20.2192C7.22221 20.0105 7.64755 19.8903 8.08356 19.8673C8.51957 19.8443 8.9552 19.9191 9.35853 20.0863C9.76186 20.2535 10.1227 20.5089 10.4145 20.8336C10.7064 21.1583 10.9219 21.5443 11.0452 21.9631L11.1921 22.46C11.5765 23.7648 13.4235 23.7648 13.8079 22.46L13.9548 21.9615C14.0783 21.5426 14.2939 21.1567 14.586 20.8319C14.878 20.5072 15.239 20.252 15.6425 20.0849C16.046 19.9178 16.4818 19.8432 16.9179 19.8664C17.354 19.8897 17.7794 20.0102 18.1629 20.2192L18.6176 20.4692C19.8114 21.1177 21.1177 19.813 20.4677 18.6176L20.2192 18.1629C20.0102 17.7793 19.8897 17.3538 19.8666 16.9176C19.8434 16.4814 19.9182 16.0456 20.0855 15.642C20.2527 15.2385 20.5081 14.8775 20.833 14.5856C21.1579 14.2936 21.544 14.0781 21.9631 13.9548L22.46 13.8079C23.7648 13.4235 23.7648 11.5765 22.46 11.1921L21.9615 11.0452C21.5428 10.9217 21.1571 10.7061 20.8325 10.4141C20.508 10.1222 20.2528 9.76138 20.0858 9.35807C19.9187 8.95476 19.844 8.51919 19.8671 8.08327C19.8902 7.64735 20.0105 7.22211 20.2192 6.83871L20.4692 6.38243C21.1177 5.18861 19.813 3.88227 18.6176 4.53231L18.1629 4.78077C17.7793 4.99008 17.3538 5.11087 16.9175 5.13427C16.4812 5.15767 16.0452 5.08309 15.6415 4.916C15.2378 4.74891 14.8766 4.49355 14.5845 4.16866C14.2923 3.84378 14.0766 3.4576 13.9532 3.03847L13.8063 2.54H13.8079ZM9.69357 2.09779C10.5171 -0.699263 14.4829 -0.699263 15.3064 2.09779L15.4533 2.59626C15.5108 2.79151 15.6113 2.97141 15.7474 3.12279C15.8834 3.27416 16.0517 3.39317 16.2397 3.47108C16.4277 3.54899 16.6308 3.58384 16.8341 3.57306C17.0374 3.56229 17.2356 3.50617 17.4144 3.40881L17.8706 3.15879C20.4333 1.76495 23.2366 4.56669 21.8396 7.12935L21.5912 7.58563C21.4938 7.76438 21.4377 7.96265 21.4269 8.16591C21.4162 8.36917 21.451 8.57226 21.5289 8.7603C21.6068 8.94834 21.7258 9.11656 21.8772 9.25264C22.0286 9.38871 22.2085 9.48918 22.4037 9.54669L22.9022 9.69357C25.6993 10.5171 25.6993 14.4829 22.9022 15.3064L22.4037 15.4533C22.2085 15.5108 22.0286 15.6113 21.8772 15.7474C21.7258 15.8834 21.6068 16.0517 21.5289 16.2397C21.451 16.4277 21.4162 16.6308 21.4269 16.8341C21.4377 17.0374 21.4938 17.2356 21.5912 17.4144L21.8412 17.8706C23.2366 20.4333 20.4317 23.2366 17.8706 21.8396L17.4144 21.5912C17.2356 21.4938 17.0374 21.4377 16.8341 21.4269C16.6308 21.4162 16.4277 21.451 16.2397 21.5289C16.0517 21.6068 15.8834 21.7258 15.7474 21.8772C15.6113 22.0286 15.5108 22.2085 15.4533 22.4037L15.3064 22.9022C14.4829 25.6993 10.5171 25.6993 9.69357 22.9022L9.54669 22.4037C9.48918 22.2085 9.38871 22.0286 9.25264 21.8772C9.11656 21.7258 8.94834 21.6068 8.7603 21.5289C8.57226 21.451 8.36917 21.4162 8.16591 21.4269C7.96265 21.4377 7.76438 21.4938 7.58563 21.5912L7.12935 21.8412C4.56669 23.2366 1.76495 20.4317 3.16035 17.8706L3.40881 17.4144C3.50617 17.2356 3.56229 17.0374 3.57306 16.8341C3.58384 16.6308 3.54899 16.4277 3.47108 16.2397C3.39317 16.0517 3.27416 15.8834 3.12279 15.7474C2.97141 15.6113 2.79151 15.5108 2.59626 15.4533L2.09779 15.3064C-0.699263 14.4829 -0.699263 10.5171 2.09779 9.69357L2.59626 9.54669C2.79151 9.48918 2.97141 9.38871 3.12279 9.25264C3.27416 9.11656 3.39317 8.94834 3.47108 8.7603C3.54899 8.57226 3.58384 8.36917 3.57306 8.16591C3.56229 7.96265 3.50617 7.76438 3.40881 7.58563L3.15879 7.12935C1.76495 4.56669 4.56825 1.76495 7.12935 3.16035L7.58563 3.40881C7.76438 3.50617 7.96265 3.56229 8.16591 3.57306C8.36917 3.58384 8.57226 3.54899 8.7603 3.47108C8.94834 3.39317 9.11656 3.27416 9.25264 3.12279C9.38871 2.97141 9.48918 2.79151 9.54669 2.59626L9.69357 2.09779Z" fill="#41F200"/>
<path fill-rule="evenodd" clip-rule="evenodd" d="M12.4996 8.99012C11.5688 8.99012 10.6761 9.35988 10.0179 10.0181C9.35973 10.6762 8.98997 11.5689 8.98997 12.4997C8.98997 13.4305 9.35973 14.3232 10.0179 14.9814C10.6761 15.6395 11.5688 16.0093 12.4996 16.0093C13.4304 16.0093 14.323 15.6395 14.9812 14.9814C15.6394 14.3232 16.0092 13.4305 16.0092 12.4997C16.0092 11.5689 15.6394 10.6762 14.9812 10.0181C14.323 9.35988 13.4304 8.99012 12.4996 8.99012ZM7.42737 12.4997C7.42737 11.8336 7.55856 11.1741 7.81347 10.5587C8.06837 9.94328 8.44198 9.38413 8.91298 8.91313C9.38398 8.44213 9.94313 8.06852 10.5585 7.81362C11.1739 7.55872 11.8335 7.42752 12.4996 7.42752C13.1657 7.42752 13.8252 7.55872 14.4406 7.81362C15.056 8.06852 15.6151 8.44213 16.0861 8.91313C16.5571 9.38413 16.9308 9.94328 17.1857 10.5587C17.4406 11.1741 17.5718 11.8336 17.5718 12.4997C17.5718 13.8449 17.0374 15.1351 16.0861 16.0863C15.1349 17.0375 13.8448 17.5719 12.4996 17.5719C11.1543 17.5719 9.8642 17.0375 8.91298 16.0863C7.96176 15.1351 7.42737 13.8449 7.42737 12.4997Z" fill="#41F200"/>
</svg>