<svg width="25" height="25" viewBox="0 0 25 25" fill="none" xmlns="http://www.w3.org/2000/svg">
<path d="M24 11.0598C23.6484 8.5254 22.4749 6.17708 20.6602 4.37661C18.8454 2.57613 16.4901 1.42338 13.9572 1.09593C11.4242 0.768482 8.85396 1.28449 6.64248 2.56448C4.431 3.84447 2.70092 5.81743 1.71875 8.17944M1 2.41867V8.17944H6.75M1 13.9402C1.35155 16.4746 2.52509 18.8229 4.33983 20.6234C6.15458 22.4239 8.50985 23.5766 11.0428 23.9041C13.5758 24.2315 16.146 23.7155 18.3575 22.4355C20.569 21.1555 22.2991 19.1826 23.2813 16.8206M24 22.5813V16.8206H18.25" stroke="#41F200" stroke-width="2" stroke-linecap="round" stroke-linejoin="round"/>
</svg>