<svg width="87" height="30" viewBox="0 0 87 30" fill="none" xmlns="http://www.w3.org/2000/svg">
<rect width="87" height="30" rx="10" fill="#286911"/>
<path d="M16.992 20.16C16.064 20.16 15.2853 20.0213 14.656 19.744C14.0267 19.456 13.5413 19.088 13.2 18.64C12.8693 18.1813 12.6933 17.696 12.672 17.184C12.672 17.0987 12.704 17.024 12.768 16.96C12.8427 16.8853 12.928 16.848 13.024 16.848H13.84C13.968 16.848 14.064 16.88 14.128 16.944C14.192 17.008 14.2347 17.0827 14.256 17.168C14.3093 17.424 14.4373 17.68 14.64 17.936C14.8533 18.1813 15.1467 18.3893 15.52 18.56C15.904 18.72 16.3947 18.8 16.992 18.8C17.9093 18.8 18.5813 18.64 19.008 18.32C19.4453 17.9893 19.664 17.552 19.664 17.008C19.664 16.6347 19.5467 16.336 19.312 16.112C19.088 15.8773 18.7413 15.6693 18.272 15.488C17.8027 15.3067 17.1947 15.1093 16.448 14.896C15.6693 14.672 15.024 14.4267 14.512 14.16C14 13.8933 13.616 13.5627 13.36 13.168C13.1147 12.7733 12.992 12.272 12.992 11.664C12.992 11.088 13.1467 10.576 13.456 10.128C13.7653 9.66933 14.208 9.30667 14.784 9.04C15.3707 8.77333 16.08 8.64 16.912 8.64C17.5733 8.64 18.1493 8.73067 18.64 8.912C19.1413 9.08267 19.5573 9.31733 19.888 9.616C20.2187 9.904 20.4693 10.2187 20.64 10.56C20.8107 10.8907 20.9013 11.216 20.912 11.536C20.912 11.6107 20.8853 11.6853 20.832 11.76C20.7787 11.824 20.6933 11.856 20.576 11.856H19.728C19.6533 11.856 19.5733 11.8347 19.488 11.792C19.4133 11.7493 19.3547 11.6693 19.312 11.552C19.248 11.1147 19.0027 10.7467 18.576 10.448C18.1493 10.1493 17.5947 10 16.912 10C16.2187 10 15.6533 10.1333 15.216 10.4C14.7893 10.6667 14.576 11.0827 14.576 11.648C14.576 12.0107 14.6773 12.3147 14.88 12.56C15.0827 12.7947 15.4027 13.0027 15.84 13.184C16.2773 13.3653 16.848 13.5573 17.552 13.76C18.4053 13.9947 19.104 14.2453 19.648 14.512C20.192 14.768 20.592 15.0933 20.848 15.488C21.1147 15.872 21.248 16.368 21.248 16.976C21.248 17.648 21.072 18.224 20.72 18.704C20.368 19.1733 19.872 19.536 19.232 19.792C18.6027 20.0373 17.856 20.16 16.992 20.16ZM26.2411 20.16C25.5585 20.16 24.9771 20.0107 24.4971 19.712C24.0278 19.4027 23.6705 18.976 23.4251 18.432C23.1798 17.888 23.0571 17.264 23.0571 16.56V12.048C23.0571 11.9413 23.0891 11.856 23.1531 11.792C23.2278 11.7173 23.3185 11.68 23.4251 11.68H24.2251C24.3318 11.68 24.4171 11.7173 24.4811 11.792C24.5558 11.856 24.5931 11.9413 24.5931 12.048V16.48C24.5931 18.0693 25.2865 18.864 26.6731 18.864C27.3345 18.864 27.8625 18.656 28.2571 18.24C28.6625 17.8133 28.8651 17.2267 28.8651 16.48V12.048C28.8651 11.9413 28.8971 11.856 28.9611 11.792C29.0358 11.7173 29.1265 11.68 29.2331 11.68H30.0171C30.1345 11.68 30.2251 11.7173 30.2891 11.792C30.3531 11.856 30.3851 11.9413 30.3851 12.048V19.632C30.3851 19.7387 30.3531 19.8293 30.2891 19.904C30.2251 19.968 30.1345 20 30.0171 20H29.2811C29.1745 20 29.0838 19.968 29.0091 19.904C28.9451 19.8293 28.9131 19.7387 28.9131 19.632V18.928C28.6251 19.3013 28.2731 19.6 27.8571 19.824C27.4518 20.048 26.9131 20.16 26.2411 20.16ZM36.1221 20.16C35.3648 20.16 34.7088 20.016 34.1541 19.728C33.6101 19.4293 33.1888 19.008 32.8901 18.464C32.5915 17.9093 32.4315 17.248 32.4101 16.48C32.3995 16.32 32.3941 16.1067 32.3941 15.84C32.3941 15.5733 32.3995 15.36 32.4101 15.2C32.4315 14.432 32.5915 13.776 32.8901 13.232C33.1888 12.6773 33.6101 12.256 34.1541 11.968C34.7088 11.6693 35.3648 11.52 36.1221 11.52C36.7408 11.52 37.2688 11.6053 37.7061 11.776C38.1541 11.9467 38.5221 12.1653 38.8101 12.432C39.0981 12.6987 39.3115 12.9867 39.4501 13.296C39.5995 13.6053 39.6795 13.8987 39.6901 14.176C39.7008 14.2827 39.6688 14.368 39.5941 14.432C39.5195 14.496 39.4288 14.528 39.3221 14.528H38.5541C38.4475 14.528 38.3675 14.5067 38.3141 14.464C38.2608 14.4107 38.2075 14.3253 38.1541 14.208C37.9621 13.6853 37.7008 13.3173 37.3701 13.104C37.0395 12.8907 36.6288 12.784 36.1381 12.784C35.4981 12.784 34.9755 12.9813 34.5701 13.376C34.1755 13.7707 33.9621 14.4053 33.9301 15.28C33.9195 15.664 33.9195 16.0373 33.9301 16.4C33.9621 17.2853 34.1755 17.9253 34.5701 18.32C34.9755 18.704 35.4981 18.896 36.1381 18.896C36.6288 18.896 37.0395 18.7893 37.3701 18.576C37.7008 18.3627 37.9621 17.9947 38.1541 17.472C38.2075 17.3547 38.2608 17.2747 38.3141 17.232C38.3675 17.1787 38.4475 17.152 38.5541 17.152H39.3221C39.4288 17.152 39.5195 17.184 39.5941 17.248C39.6688 17.312 39.7008 17.3973 39.6901 17.504C39.6795 17.728 39.6315 17.9573 39.5461 18.192C39.4608 18.4267 39.3221 18.6667 39.1301 18.912C38.9488 19.1467 38.7195 19.36 38.4421 19.552C38.1648 19.7333 37.8288 19.8827 37.4341 20C37.0501 20.1067 36.6128 20.16 36.1221 20.16ZM44.9503 20.16C44.1929 20.16 43.5369 20.016 42.9823 19.728C42.4383 19.4293 42.0169 19.008 41.7183 18.464C41.4196 17.9093 41.2596 17.248 41.2383 16.48C41.2276 16.32 41.2223 16.1067 41.2223 15.84C41.2223 15.5733 41.2276 15.36 41.2383 15.2C41.2596 14.432 41.4196 13.776 41.7183 13.232C42.0169 12.6773 42.4383 12.256 42.9823 11.968C43.5369 11.6693 44.1929 11.52 44.9503 11.52C45.5689 11.52 46.0969 11.6053 46.5343 11.776C46.9823 11.9467 47.3503 12.1653 47.6383 12.432C47.9263 12.6987 48.1396 12.9867 48.2783 13.296C48.4276 13.6053 48.5076 13.8987 48.5183 14.176C48.5289 14.2827 48.4969 14.368 48.4223 14.432C48.3476 14.496 48.2569 14.528 48.1503 14.528H47.3823C47.2756 14.528 47.1956 14.5067 47.1423 14.464C47.0889 14.4107 47.0356 14.3253 46.9823 14.208C46.7903 13.6853 46.5289 13.3173 46.1983 13.104C45.8676 12.8907 45.4569 12.784 44.9663 12.784C44.3263 12.784 43.8036 12.9813 43.3983 13.376C43.0036 13.7707 42.7903 14.4053 42.7582 15.28C42.7476 15.664 42.7476 16.0373 42.7582 16.4C42.7903 17.2853 43.0036 17.9253 43.3983 18.32C43.8036 18.704 44.3263 18.896 44.9663 18.896C45.4569 18.896 45.8676 18.7893 46.1983 18.576C46.5289 18.3627 46.7903 17.9947 46.9823 17.472C47.0356 17.3547 47.0889 17.2747 47.1423 17.232C47.1956 17.1787 47.2756 17.152 47.3823 17.152H48.1503C48.2569 17.152 48.3476 17.184 48.4223 17.248C48.4969 17.312 48.5289 17.3973 48.5183 17.504C48.5076 17.728 48.4596 17.9573 48.3743 18.192C48.2889 18.4267 48.1503 18.6667 47.9583 18.912C47.7769 19.1467 47.5476 19.36 47.2703 19.552C46.9929 19.7333 46.6569 19.8827 46.2623 20C45.8783 20.1067 45.4409 20.16 44.9503 20.16ZM53.7304 20.16C52.6317 20.16 51.757 19.824 51.1064 19.152C50.4557 18.4693 50.0984 17.5413 50.0344 16.368C50.0237 16.2293 50.0184 16.0533 50.0184 15.84C50.0184 15.616 50.0237 15.4347 50.0344 15.296C50.077 14.5387 50.253 13.8773 50.5624 13.312C50.8717 12.736 51.293 12.2933 51.8264 11.984C52.3704 11.6747 53.005 11.52 53.7304 11.52C54.541 11.52 55.2184 11.6907 55.7624 12.032C56.317 12.3733 56.7384 12.8587 57.0264 13.488C57.3144 14.1173 57.4584 14.8533 57.4584 15.696V15.968C57.4584 16.0853 57.421 16.176 57.3464 16.24C57.2824 16.304 57.197 16.336 57.0904 16.336H51.5544C51.5544 16.3467 51.5544 16.368 51.5544 16.4C51.5544 16.432 51.5544 16.4587 51.5544 16.48C51.5757 16.9173 51.6717 17.328 51.8424 17.712C52.013 18.0853 52.2584 18.3893 52.5784 18.624C52.8984 18.8587 53.2824 18.976 53.7304 18.976C54.1144 18.976 54.4344 18.9173 54.6904 18.8C54.9464 18.6827 55.1544 18.5547 55.3144 18.416C55.4744 18.2667 55.581 18.1547 55.6344 18.08C55.7304 17.9413 55.805 17.8613 55.8584 17.84C55.9117 17.808 55.997 17.792 56.1144 17.792H56.8824C56.989 17.792 57.0744 17.824 57.1384 17.888C57.213 17.9413 57.245 18.0213 57.2344 18.128C57.2237 18.288 57.1384 18.4853 56.9784 18.72C56.8184 18.944 56.589 19.168 56.2904 19.392C55.9917 19.616 55.629 19.8027 55.2024 19.952C54.7757 20.0907 54.285 20.16 53.7304 20.16ZM51.5544 15.232H55.9384V15.184C55.9384 14.704 55.8477 14.2773 55.6664 13.904C55.4957 13.5307 55.245 13.2373 54.9144 13.024C54.5837 12.8 54.189 12.688 53.7304 12.688C53.2717 12.688 52.877 12.8 52.5464 13.024C52.2264 13.2373 51.981 13.5307 51.8104 13.904C51.6397 14.2773 51.5544 14.704 51.5544 15.184V15.232ZM62.2515 20.16C61.6542 20.16 61.1422 20.0853 60.7155 19.936C60.2888 19.7867 59.9422 19.6053 59.6755 19.392C59.4088 19.1787 59.2062 18.9653 59.0675 18.752C58.9395 18.5387 58.8702 18.368 58.8595 18.24C58.8488 18.1227 58.8862 18.032 58.9715 17.968C59.0568 17.904 59.1422 17.872 59.2275 17.872H59.9315C59.9955 17.872 60.0435 17.8827 60.0755 17.904C60.1182 17.9147 60.1715 17.9573 60.2355 18.032C60.3742 18.1813 60.5288 18.3307 60.6995 18.48C60.8702 18.6293 61.0782 18.752 61.3235 18.848C61.5795 18.944 61.8942 18.992 62.2675 18.992C62.8115 18.992 63.2595 18.8907 63.6115 18.688C63.9635 18.4747 64.1395 18.1653 64.1395 17.76C64.1395 17.4933 64.0648 17.28 63.9155 17.12C63.7768 16.96 63.5208 16.816 63.1475 16.688C62.7848 16.56 62.2835 16.4267 61.6435 16.288C61.0035 16.1387 60.4968 15.9573 60.1235 15.744C59.7502 15.52 59.4835 15.2587 59.3235 14.96C59.1635 14.6507 59.0835 14.304 59.0835 13.92C59.0835 13.5253 59.2008 13.1467 59.4355 12.784C59.6702 12.4107 60.0115 12.1067 60.4595 11.872C60.9182 11.6373 61.4888 11.52 62.1715 11.52C62.7262 11.52 63.2008 11.5893 63.5955 11.728C63.9902 11.8667 64.3155 12.0427 64.5715 12.256C64.8275 12.4587 65.0195 12.6613 65.1475 12.864C65.2755 13.0667 65.3448 13.2373 65.3555 13.376C65.3662 13.4827 65.3342 13.5733 65.2595 13.648C65.1848 13.712 65.0995 13.744 65.0035 13.744H64.3315C64.2568 13.744 64.1928 13.728 64.1395 13.696C64.0968 13.664 64.0542 13.6267 64.0115 13.584C63.9048 13.4453 63.7768 13.3067 63.6275 13.168C63.4888 13.0293 63.3022 12.9173 63.0675 12.832C62.8435 12.736 62.5448 12.688 62.1715 12.688C61.6382 12.688 61.2382 12.8 60.9715 13.024C60.7048 13.248 60.5715 13.5307 60.5715 13.872C60.5715 14.0747 60.6302 14.256 60.7475 14.416C60.8648 14.576 61.0888 14.72 61.4195 14.848C61.7502 14.976 62.2408 15.1147 62.8915 15.264C63.5955 15.4027 64.1502 15.5893 64.5555 15.824C64.9608 16.0587 65.2488 16.3307 65.4195 16.64C65.5902 16.9493 65.6755 17.3067 65.6755 17.712C65.6755 18.16 65.5422 18.5707 65.2755 18.944C65.0195 19.3173 64.6355 19.616 64.1235 19.84C63.6222 20.0533 62.9982 20.16 62.2515 20.16ZM70.4078 20.16C69.8104 20.16 69.2984 20.0853 68.8718 19.936C68.4451 19.7867 68.0984 19.6053 67.8318 19.392C67.5651 19.1787 67.3624 18.9653 67.2238 18.752C67.0958 18.5387 67.0264 18.368 67.0158 18.24C67.0051 18.1227 67.0424 18.032 67.1278 17.968C67.2131 17.904 67.2984 17.872 67.3838 17.872H68.0878C68.1518 17.872 68.1998 17.8827 68.2318 17.904C68.2744 17.9147 68.3278 17.9573 68.3918 18.032C68.5304 18.1813 68.6851 18.3307 68.8558 18.48C69.0264 18.6293 69.2344 18.752 69.4798 18.848C69.7358 18.944 70.0504 18.992 70.4238 18.992C70.9678 18.992 71.4158 18.8907 71.7678 18.688C72.1198 18.4747 72.2958 18.1653 72.2958 17.76C72.2958 17.4933 72.2211 17.28 72.0718 17.12C71.9331 16.96 71.6771 16.816 71.3038 16.688C70.9411 16.56 70.4398 16.4267 69.7998 16.288C69.1598 16.1387 68.6531 15.9573 68.2798 15.744C67.9064 15.52 67.6398 15.2587 67.4798 14.96C67.3198 14.6507 67.2398 14.304 67.2398 13.92C67.2398 13.5253 67.3571 13.1467 67.5918 12.784C67.8264 12.4107 68.1678 12.1067 68.6158 11.872C69.0744 11.6373 69.6451 11.52 70.3278 11.52C70.8824 11.52 71.3571 11.5893 71.7518 11.728C72.1464 11.8667 72.4718 12.0427 72.7278 12.256C72.9838 12.4587 73.1758 12.6613 73.3038 12.864C73.4318 13.0667 73.5011 13.2373 73.5118 13.376C73.5224 13.4827 73.4904 13.5733 73.4158 13.648C73.3411 13.712 73.2558 13.744 73.1598 13.744H72.4878C72.4131 13.744 72.3491 13.728 72.2958 13.696C72.2531 13.664 72.2104 13.6267 72.1678 13.584C72.0611 13.4453 71.9331 13.3067 71.7838 13.168C71.6451 13.0293 71.4584 12.9173 71.2238 12.832C70.9998 12.736 70.7011 12.688 70.3278 12.688C69.7944 12.688 69.3944 12.8 69.1278 13.024C68.8611 13.248 68.7278 13.5307 68.7278 13.872C68.7278 14.0747 68.7864 14.256 68.9038 14.416C69.0211 14.576 69.2451 14.72 69.5758 14.848C69.9064 14.976 70.3971 15.1147 71.0477 15.264C71.7518 15.4027 72.3064 15.5893 72.7118 15.824C73.1171 16.0587 73.4051 16.3307 73.5758 16.64C73.7464 16.9493 73.8318 17.3067 73.8318 17.712C73.8318 18.16 73.6984 18.5707 73.4318 18.944C73.1758 19.3173 72.7918 19.616 72.2798 19.84C71.7784 20.0533 71.1544 20.16 70.4078 20.16Z" fill="#41F200"/>
</svg>